<svg width="557" height="194" viewBox="0 0 557 194" fill="none" xmlns="http://www.w3.org/2000/svg">
<rect width="557" height="194" rx="12" fill="white"/>
<line x1="30" y1="33.5" x2="516" y2="33.5" stroke="#E6E6E6"/>
<line x1="30" y1="71.5" x2="516" y2="71.5" stroke="#E6E6E6"/>
<line x1="30" y1="109.5" x2="516" y2="109.5" stroke="#E6E6E6"/>
<line x1="30" y1="147.5" x2="516" y2="147.5" stroke="#E6E6E6"/>
<path d="M27 118L132.015 100.267C144.628 98.137 150.934 97.0721 157.307 96.9072C163.679 96.7423 170.032 97.4797 182.738 98.9545L268.872 108.952C288.39 111.217 298.148 112.35 307.847 111.374C317.545 110.399 326.883 107.347 345.558 101.241L513 46.5" stroke="#009FB2" stroke-width="2" stroke-linecap="round"/>
<path d="M27 125.5L127.174 94.8284C138.249 91.4374 143.787 89.7419 149.498 89.6652C155.21 89.5884 160.791 91.1345 171.953 94.2267L281.301 124.519C299.02 129.427 307.879 131.882 316.641 130.405C325.403 128.929 332.966 123.709 348.09 113.27C362.6 103.255 380.205 91.104 396.209 80.0581C403.823 74.8027 407.63 72.175 411.897 70.4916C416.164 68.8083 420.742 68.1285 429.896 66.7689L512.512 54.5" stroke="#009FB2" stroke-linecap="round" stroke-linejoin="round" stroke-dasharray="2 2"/>
<path d="M33.21 163.168C32.782 163.168 32.384 163.09 32.016 162.934C31.648 162.774 31.33 162.55 31.062 162.262C30.798 161.97 30.604 161.624 30.48 161.224L31.506 160.93C31.638 161.33 31.858 161.634 32.166 161.842C32.474 162.05 32.82 162.152 33.204 162.148C33.556 162.14 33.86 162.06 34.116 161.908C34.376 161.752 34.576 161.54 34.716 161.272C34.86 161.004 34.932 160.694 34.932 160.342C34.932 159.806 34.772 159.372 34.452 159.04C34.132 158.704 33.712 158.536 33.192 158.536C33.048 158.536 32.896 158.556 32.736 158.596C32.58 158.636 32.434 158.692 32.298 158.764L31.782 157.918L34.986 155.02L35.124 155.38H30.822V154.36H35.916V155.386L33.186 158.002L33.174 157.624C33.746 157.584 34.246 157.678 34.674 157.906C35.102 158.134 35.434 158.46 35.67 158.884C35.91 159.308 36.03 159.794 36.03 160.342C36.03 160.894 35.906 161.382 35.658 161.806C35.41 162.23 35.074 162.564 34.65 162.808C34.226 163.048 33.746 163.168 33.21 163.168ZM40.506 163.18C39.946 163.18 39.446 163.054 39.006 162.802C38.57 162.546 38.224 162.2 37.968 161.764C37.716 161.324 37.59 160.824 37.59 160.264V157.096C37.59 156.536 37.716 156.036 37.968 155.596C38.224 155.156 38.57 154.81 39.006 154.558C39.446 154.306 39.946 154.18 40.506 154.18C41.066 154.18 41.566 154.306 42.006 154.558C42.446 154.81 42.792 155.156 43.044 155.596C43.296 156.036 43.422 156.536 43.422 157.096V160.264C43.422 160.824 43.296 161.324 43.044 161.764C42.792 162.2 42.446 162.546 42.006 162.802C41.566 163.054 41.066 163.18 40.506 163.18ZM40.506 162.154C40.846 162.154 41.154 162.072 41.43 161.908C41.706 161.744 41.926 161.524 42.09 161.248C42.254 160.968 42.336 160.66 42.336 160.324V157.03C42.336 156.69 42.254 156.382 42.09 156.106C41.926 155.83 41.706 155.61 41.43 155.446C41.154 155.282 40.846 155.2 40.506 155.2C40.17 155.2 39.862 155.282 39.582 155.446C39.306 155.61 39.086 155.83 38.922 156.106C38.758 156.382 38.676 156.69 38.676 157.03V160.324C38.676 160.66 38.758 160.968 38.922 161.248C39.086 161.524 39.306 161.744 39.582 161.908C39.862 162.072 40.17 162.154 40.506 162.154Z" fill="#C7C7C7"/>
<path d="M30.84 175V166.36H33.504C33.592 166.36 33.746 166.362 33.966 166.366C34.186 166.37 34.396 166.386 34.596 166.414C35.264 166.502 35.822 166.746 36.27 167.146C36.722 167.542 37.062 168.046 37.29 168.658C37.518 169.27 37.632 169.944 37.632 170.68C37.632 171.416 37.518 172.09 37.29 172.702C37.062 173.314 36.722 173.82 36.27 174.22C35.822 174.616 35.264 174.858 34.596 174.946C34.396 174.97 34.184 174.986 33.96 174.994C33.74 174.998 33.588 175 33.504 175H30.84ZM31.938 173.98H33.504C33.656 173.98 33.826 173.976 34.014 173.968C34.202 173.956 34.366 173.938 34.506 173.914C34.978 173.826 35.36 173.628 35.652 173.32C35.944 173.012 36.158 172.628 36.294 172.168C36.43 171.708 36.498 171.212 36.498 170.68C36.498 170.136 36.428 169.634 36.288 169.174C36.152 168.714 35.938 168.332 35.646 168.028C35.354 167.724 34.974 167.53 34.506 167.446C34.366 167.418 34.2 167.4 34.008 167.392C33.816 167.384 33.648 167.38 33.504 167.38H31.938V173.98ZM41.816 175.18C41.18 175.18 40.624 175.04 40.148 174.76C39.676 174.476 39.308 174.082 39.044 173.578C38.78 173.07 38.648 172.478 38.648 171.802C38.648 171.094 38.778 170.482 39.038 169.966C39.298 169.446 39.66 169.046 40.124 168.766C40.592 168.482 41.14 168.34 41.768 168.34C42.42 168.34 42.974 168.49 43.43 168.79C43.89 169.09 44.234 169.518 44.462 170.074C44.694 170.63 44.794 171.292 44.762 172.06H43.682V171.676C43.67 170.88 43.508 170.286 43.196 169.894C42.884 169.498 42.42 169.3 41.804 169.3C41.144 169.3 40.642 169.512 40.298 169.936C39.954 170.36 39.782 170.968 39.782 171.76C39.782 172.524 39.954 173.116 40.298 173.536C40.642 173.956 41.132 174.166 41.768 174.166C42.196 174.166 42.568 174.068 42.884 173.872C43.2 173.676 43.448 173.394 43.628 173.026L44.654 173.38C44.402 173.952 44.022 174.396 43.514 174.712C43.01 175.024 42.444 175.18 41.816 175.18ZM39.422 172.06V171.202H44.21V172.06H39.422ZM48.8278 175.18C48.1718 175.18 47.6138 175.034 47.1538 174.742C46.6978 174.446 46.3498 174.04 46.1098 173.524C45.8698 173.008 45.7458 172.42 45.7378 171.76C45.7458 171.084 45.8718 170.49 46.1158 169.978C46.3638 169.462 46.7178 169.06 47.1778 168.772C47.6378 168.484 48.1918 168.34 48.8398 168.34C49.5238 168.34 50.1118 168.508 50.6038 168.844C51.0998 169.18 51.4318 169.64 51.5998 170.224L50.5438 170.542C50.4078 170.166 50.1858 169.874 49.8778 169.666C49.5738 169.458 49.2238 169.354 48.8278 169.354C48.3838 169.354 48.0178 169.458 47.7298 169.666C47.4418 169.87 47.2278 170.154 47.0878 170.518C46.9478 170.878 46.8758 171.292 46.8718 171.76C46.8798 172.48 47.0458 173.062 47.3698 173.506C47.6978 173.946 48.1838 174.166 48.8278 174.166C49.2518 174.166 49.6038 174.07 49.8838 173.878C50.1638 173.682 50.3758 173.4 50.5198 173.032L51.5998 173.314C51.3758 173.918 51.0258 174.38 50.5498 174.7C50.0738 175.02 49.4998 175.18 48.8278 175.18Z" fill="#C7C7C7"/>
<path d="M117.256 163.18C116.696 163.18 116.196 163.054 115.756 162.802C115.32 162.546 114.974 162.2 114.718 161.764C114.466 161.324 114.34 160.824 114.34 160.264V157.096C114.34 156.536 114.466 156.036 114.718 155.596C114.974 155.156 115.32 154.81 115.756 154.558C116.196 154.306 116.696 154.18 117.256 154.18C117.816 154.18 118.316 154.306 118.756 154.558C119.196 154.81 119.542 155.156 119.794 155.596C120.046 156.036 120.172 156.536 120.172 157.096V160.264C120.172 160.824 120.046 161.324 119.794 161.764C119.542 162.2 119.196 162.546 118.756 162.802C118.316 163.054 117.816 163.18 117.256 163.18ZM117.256 162.154C117.596 162.154 117.904 162.072 118.18 161.908C118.456 161.744 118.676 161.524 118.84 161.248C119.004 160.968 119.086 160.66 119.086 160.324V157.03C119.086 156.69 119.004 156.382 118.84 156.106C118.676 155.83 118.456 155.61 118.18 155.446C117.904 155.282 117.596 155.2 117.256 155.2C116.92 155.2 116.612 155.282 116.332 155.446C116.056 155.61 115.836 155.83 115.672 156.106C115.508 156.382 115.426 156.69 115.426 157.03V160.324C115.426 160.66 115.508 160.968 115.672 161.248C115.836 161.524 116.056 161.744 116.332 161.908C116.612 162.072 116.92 162.154 117.256 162.154ZM123.358 163V155.542L121.732 156.526V155.332L123.358 154.36H124.444V163H123.358Z" fill="#C7C7C7"/>
<path d="M115.9 175.174C115.296 175.174 114.784 175.01 114.364 174.682C113.944 174.354 113.656 173.914 113.5 173.362L114.562 173.11C114.626 173.402 114.78 173.65 115.024 173.854C115.272 174.058 115.556 174.16 115.876 174.16C116.084 174.16 116.296 174.11 116.512 174.01C116.728 173.906 116.894 173.738 117.01 173.506C117.09 173.346 117.136 173.17 117.148 172.978C117.16 172.782 117.166 172.552 117.166 172.288V166.36H118.246V172.288C118.246 172.536 118.244 172.758 118.24 172.954C118.24 173.15 118.22 173.338 118.18 173.518C118.144 173.694 118.072 173.874 117.964 174.058C117.748 174.438 117.458 174.72 117.094 174.904C116.734 175.084 116.336 175.174 115.9 175.174ZM121.889 175.18C121.405 175.18 120.999 175.092 120.671 174.916C120.347 174.736 120.101 174.5 119.933 174.208C119.769 173.916 119.687 173.596 119.687 173.248C119.687 172.908 119.751 172.614 119.879 172.366C120.011 172.114 120.195 171.906 120.431 171.742C120.667 171.574 120.949 171.442 121.277 171.346C121.585 171.262 121.929 171.19 122.309 171.13C122.693 171.066 123.081 171.008 123.473 170.956C123.865 170.904 124.231 170.854 124.571 170.806L124.187 171.028C124.199 170.452 124.083 170.026 123.839 169.75C123.599 169.474 123.183 169.336 122.591 169.336C122.199 169.336 121.855 169.426 121.559 169.606C121.267 169.782 121.061 170.07 120.941 170.47L119.927 170.164C120.083 169.596 120.385 169.15 120.833 168.826C121.281 168.502 121.871 168.34 122.603 168.34C123.191 168.34 123.695 168.446 124.115 168.658C124.539 168.866 124.843 169.182 125.027 169.606C125.119 169.806 125.177 170.024 125.201 170.26C125.225 170.492 125.237 170.736 125.237 170.992V175H124.289V173.446L124.511 173.59C124.267 174.114 123.925 174.51 123.485 174.778C123.049 175.046 122.517 175.18 121.889 175.18ZM122.051 174.286C122.435 174.286 122.767 174.218 123.047 174.082C123.331 173.942 123.559 173.76 123.731 173.536C123.903 173.308 124.015 173.06 124.067 172.792C124.127 172.592 124.159 172.37 124.163 172.126C124.171 171.878 124.175 171.688 124.175 171.556L124.547 171.718C124.199 171.766 123.857 171.812 123.521 171.856C123.185 171.9 122.867 171.948 122.567 172C122.267 172.048 121.997 172.106 121.757 172.174C121.581 172.23 121.415 172.302 121.259 172.39C121.107 172.478 120.983 172.592 120.887 172.732C120.795 172.868 120.749 173.038 120.749 173.242C120.749 173.418 120.793 173.586 120.881 173.746C120.973 173.906 121.113 174.036 121.301 174.136C121.493 174.236 121.743 174.286 122.051 174.286ZM131.411 175V171.754C131.411 171.446 131.383 171.15 131.327 170.866C131.275 170.582 131.181 170.328 131.045 170.104C130.913 169.876 130.733 169.696 130.505 169.564C130.281 169.432 129.997 169.366 129.653 169.366C129.385 169.366 129.141 169.412 128.921 169.504C128.705 169.592 128.519 169.728 128.363 169.912C128.207 170.096 128.085 170.328 127.997 170.608C127.913 170.884 127.871 171.21 127.871 171.586L127.169 171.37C127.169 170.742 127.281 170.204 127.505 169.756C127.733 169.304 128.051 168.958 128.459 168.718C128.871 168.474 129.355 168.352 129.911 168.352C130.331 168.352 130.689 168.418 130.985 168.55C131.281 168.682 131.527 168.858 131.723 169.078C131.919 169.294 132.073 169.538 132.185 169.81C132.297 170.078 132.375 170.352 132.419 170.632C132.467 170.908 132.491 171.17 132.491 171.418V175H131.411ZM126.791 175V168.52H127.751V170.254H127.871V175H126.791Z" fill="#C7C7C7"/>
<path d="M198.756 163.18C198.196 163.18 197.696 163.054 197.256 162.802C196.82 162.546 196.474 162.2 196.218 161.764C195.966 161.324 195.84 160.824 195.84 160.264V157.096C195.84 156.536 195.966 156.036 196.218 155.596C196.474 155.156 196.82 154.81 197.256 154.558C197.696 154.306 198.196 154.18 198.756 154.18C199.316 154.18 199.816 154.306 200.256 154.558C200.696 154.81 201.042 155.156 201.294 155.596C201.546 156.036 201.672 156.536 201.672 157.096V160.264C201.672 160.824 201.546 161.324 201.294 161.764C201.042 162.2 200.696 162.546 200.256 162.802C199.816 163.054 199.316 163.18 198.756 163.18ZM198.756 162.154C199.096 162.154 199.404 162.072 199.68 161.908C199.956 161.744 200.176 161.524 200.34 161.248C200.504 160.968 200.586 160.66 200.586 160.324V157.03C200.586 156.69 200.504 156.382 200.34 156.106C200.176 155.83 199.956 155.61 199.68 155.446C199.404 155.282 199.096 155.2 198.756 155.2C198.42 155.2 198.112 155.282 197.832 155.446C197.556 155.61 197.336 155.83 197.172 156.106C197.008 156.382 196.926 156.69 196.926 157.03V160.324C196.926 160.66 197.008 160.968 197.172 161.248C197.336 161.524 197.556 161.744 197.832 161.908C198.112 162.072 198.42 162.154 198.756 162.154ZM203.112 162.994L203.118 162.034L206.952 158.584C207.272 158.296 207.486 158.024 207.594 157.768C207.706 157.508 207.762 157.242 207.762 156.97C207.762 156.638 207.686 156.338 207.534 156.07C207.382 155.802 207.174 155.59 206.91 155.434C206.65 155.278 206.354 155.2 206.022 155.2C205.678 155.2 205.372 155.282 205.104 155.446C204.836 155.606 204.624 155.82 204.468 156.088C204.316 156.356 204.242 156.648 204.246 156.964H203.154C203.154 156.42 203.28 155.94 203.532 155.524C203.784 155.104 204.126 154.776 204.558 154.54C204.994 154.3 205.488 154.18 206.04 154.18C206.576 154.18 207.056 154.304 207.48 154.552C207.904 154.796 208.238 155.13 208.482 155.554C208.73 155.974 208.854 156.45 208.854 156.982C208.854 157.358 208.806 157.684 208.71 157.96C208.618 158.236 208.474 158.492 208.278 158.728C208.082 158.96 207.836 159.208 207.54 159.472L204.354 162.334L204.216 161.974H208.854V162.994H203.112Z" fill="#C7C7C7"/>
<path d="M275.256 163.18C274.696 163.18 274.196 163.054 273.756 162.802C273.32 162.546 272.974 162.2 272.718 161.764C272.466 161.324 272.34 160.824 272.34 160.264V157.096C272.34 156.536 272.466 156.036 272.718 155.596C272.974 155.156 273.32 154.81 273.756 154.558C274.196 154.306 274.696 154.18 275.256 154.18C275.816 154.18 276.316 154.306 276.756 154.558C277.196 154.81 277.542 155.156 277.794 155.596C278.046 156.036 278.172 156.536 278.172 157.096V160.264C278.172 160.824 278.046 161.324 277.794 161.764C277.542 162.2 277.196 162.546 276.756 162.802C276.316 163.054 275.816 163.18 275.256 163.18ZM275.256 162.154C275.596 162.154 275.904 162.072 276.18 161.908C276.456 161.744 276.676 161.524 276.84 161.248C277.004 160.968 277.086 160.66 277.086 160.324V157.03C277.086 156.69 277.004 156.382 276.84 156.106C276.676 155.83 276.456 155.61 276.18 155.446C275.904 155.282 275.596 155.2 275.256 155.2C274.92 155.2 274.612 155.282 274.332 155.446C274.056 155.61 273.836 155.83 273.672 156.106C273.508 156.382 273.426 156.69 273.426 157.03V160.324C273.426 160.66 273.508 160.968 273.672 161.248C273.836 161.524 274.056 161.744 274.332 161.908C274.612 162.072 274.92 162.154 275.256 162.154ZM282.222 163.168C281.794 163.168 281.396 163.09 281.028 162.934C280.66 162.774 280.342 162.55 280.074 162.262C279.81 161.97 279.616 161.624 279.492 161.224L280.518 160.93C280.65 161.33 280.87 161.634 281.178 161.842C281.486 162.05 281.832 162.152 282.216 162.148C282.568 162.14 282.872 162.06 283.128 161.908C283.388 161.752 283.588 161.54 283.728 161.272C283.872 161.004 283.944 160.694 283.944 160.342C283.944 159.806 283.784 159.372 283.464 159.04C283.144 158.704 282.724 158.536 282.204 158.536C282.06 158.536 281.908 158.556 281.748 158.596C281.592 158.636 281.446 158.692 281.31 158.764L280.794 157.918L283.998 155.02L284.136 155.38H279.834V154.36H284.928V155.386L282.198 158.002L282.186 157.624C282.758 157.584 283.258 157.678 283.686 157.906C284.114 158.134 284.446 158.46 284.682 158.884C284.922 159.308 285.042 159.794 285.042 160.342C285.042 160.894 284.918 161.382 284.67 161.806C284.422 162.23 284.086 162.564 283.662 162.808C283.238 163.048 282.758 163.168 282.222 163.168Z" fill="#C7C7C7"/>
<path d="M351.756 163.18C351.196 163.18 350.696 163.054 350.256 162.802C349.82 162.546 349.474 162.2 349.218 161.764C348.966 161.324 348.84 160.824 348.84 160.264V157.096C348.84 156.536 348.966 156.036 349.218 155.596C349.474 155.156 349.82 154.81 350.256 154.558C350.696 154.306 351.196 154.18 351.756 154.18C352.316 154.18 352.816 154.306 353.256 154.558C353.696 154.81 354.042 155.156 354.294 155.596C354.546 156.036 354.672 156.536 354.672 157.096V160.264C354.672 160.824 354.546 161.324 354.294 161.764C354.042 162.2 353.696 162.546 353.256 162.802C352.816 163.054 352.316 163.18 351.756 163.18ZM351.756 162.154C352.096 162.154 352.404 162.072 352.68 161.908C352.956 161.744 353.176 161.524 353.34 161.248C353.504 160.968 353.586 160.66 353.586 160.324V157.03C353.586 156.69 353.504 156.382 353.34 156.106C353.176 155.83 352.956 155.61 352.68 155.446C352.404 155.282 352.096 155.2 351.756 155.2C351.42 155.2 351.112 155.282 350.832 155.446C350.556 155.61 350.336 155.83 350.172 156.106C350.008 156.382 349.926 156.69 349.926 157.03V160.324C349.926 160.66 350.008 160.968 350.172 161.248C350.336 161.524 350.556 161.744 350.832 161.908C351.112 162.072 351.42 162.154 351.756 162.154ZM360.084 163V161.41H356.112V160.396L358.962 154.36H360.174L357.324 160.396H360.084V157.966H361.164V160.396H362.064V161.41H361.164V163H360.084Z" fill="#C7C7C7"/>
<path d="M428.256 163.18C427.696 163.18 427.196 163.054 426.756 162.802C426.32 162.546 425.974 162.2 425.718 161.764C425.466 161.324 425.34 160.824 425.34 160.264V157.096C425.34 156.536 425.466 156.036 425.718 155.596C425.974 155.156 426.32 154.81 426.756 154.558C427.196 154.306 427.696 154.18 428.256 154.18C428.816 154.18 429.316 154.306 429.756 154.558C430.196 154.81 430.542 155.156 430.794 155.596C431.046 156.036 431.172 156.536 431.172 157.096V160.264C431.172 160.824 431.046 161.324 430.794 161.764C430.542 162.2 430.196 162.546 429.756 162.802C429.316 163.054 428.816 163.18 428.256 163.18ZM428.256 162.154C428.596 162.154 428.904 162.072 429.18 161.908C429.456 161.744 429.676 161.524 429.84 161.248C430.004 160.968 430.086 160.66 430.086 160.324V157.03C430.086 156.69 430.004 156.382 429.84 156.106C429.676 155.83 429.456 155.61 429.18 155.446C428.904 155.282 428.596 155.2 428.256 155.2C427.92 155.2 427.612 155.282 427.332 155.446C427.056 155.61 426.836 155.83 426.672 156.106C426.508 156.382 426.426 156.69 426.426 157.03V160.324C426.426 160.66 426.508 160.968 426.672 161.248C426.836 161.524 427.056 161.744 427.332 161.908C427.612 162.072 427.92 162.154 428.256 162.154ZM435.408 163.18C434.964 163.18 434.55 163.088 434.166 162.904C433.786 162.72 433.46 162.468 433.188 162.148C432.92 161.824 432.728 161.452 432.612 161.032L433.638 160.756C433.71 161.04 433.838 161.286 434.022 161.494C434.206 161.698 434.42 161.858 434.664 161.974C434.912 162.086 435.17 162.142 435.438 162.142C435.79 162.142 436.106 162.058 436.386 161.89C436.67 161.718 436.894 161.492 437.058 161.212C437.222 160.928 437.304 160.618 437.304 160.282C437.304 159.934 437.218 159.62 437.046 159.34C436.878 159.056 436.652 158.832 436.368 158.668C436.084 158.504 435.774 158.422 435.438 158.422C435.058 158.422 434.732 158.502 434.46 158.662C434.192 158.818 433.98 159.01 433.824 159.238L432.876 158.878L433.14 154.36H437.778V155.374H433.656L434.13 154.93L433.908 158.548L433.674 158.242C433.914 157.986 434.2 157.788 434.532 157.648C434.868 157.508 435.21 157.438 435.558 157.438C436.094 157.438 436.574 157.564 436.998 157.816C437.422 158.064 437.758 158.404 438.006 158.836C438.254 159.264 438.378 159.746 438.378 160.282C438.378 160.814 438.242 161.3 437.97 161.74C437.698 162.176 437.336 162.526 436.884 162.79C436.436 163.05 435.944 163.18 435.408 163.18Z" fill="#C7C7C7"/>
<path d="M504.756 163.18C504.196 163.18 503.696 163.054 503.256 162.802C502.82 162.546 502.474 162.2 502.218 161.764C501.966 161.324 501.84 160.824 501.84 160.264V157.096C501.84 156.536 501.966 156.036 502.218 155.596C502.474 155.156 502.82 154.81 503.256 154.558C503.696 154.306 504.196 154.18 504.756 154.18C505.316 154.18 505.816 154.306 506.256 154.558C506.696 154.81 507.042 155.156 507.294 155.596C507.546 156.036 507.672 156.536 507.672 157.096V160.264C507.672 160.824 507.546 161.324 507.294 161.764C507.042 162.2 506.696 162.546 506.256 162.802C505.816 163.054 505.316 163.18 504.756 163.18ZM504.756 162.154C505.096 162.154 505.404 162.072 505.68 161.908C505.956 161.744 506.176 161.524 506.34 161.248C506.504 160.968 506.586 160.66 506.586 160.324V157.03C506.586 156.69 506.504 156.382 506.34 156.106C506.176 155.83 505.956 155.61 505.68 155.446C505.404 155.282 505.096 155.2 504.756 155.2C504.42 155.2 504.112 155.282 503.832 155.446C503.556 155.61 503.336 155.83 503.172 156.106C503.008 156.382 502.926 156.69 502.926 157.03V160.324C502.926 160.66 503.008 160.968 503.172 161.248C503.336 161.524 503.556 161.744 503.832 161.908C504.112 162.072 504.42 162.154 504.756 162.154ZM512.298 163.18C511.75 163.18 511.252 163.048 510.804 162.784C510.36 162.52 510.006 162.16 509.742 161.704C509.482 161.244 509.352 160.726 509.352 160.15V157.276C509.352 156.672 509.482 156.138 509.742 155.674C510.006 155.206 510.366 154.842 510.822 154.582C511.282 154.318 511.806 154.186 512.394 154.186C512.87 154.186 513.312 154.284 513.72 154.48C514.132 154.672 514.478 154.95 514.758 155.314L513.96 156.022C513.788 155.77 513.564 155.57 513.288 155.422C513.012 155.274 512.714 155.2 512.394 155.2C512.014 155.2 511.676 155.292 511.38 155.476C511.088 155.656 510.858 155.896 510.69 156.196C510.522 156.492 510.438 156.812 510.438 157.156V158.89L510.204 158.626C510.456 158.266 510.776 157.978 511.164 157.762C511.552 157.546 511.972 157.438 512.424 157.438C512.96 157.438 513.44 157.564 513.864 157.816C514.292 158.068 514.628 158.41 514.872 158.842C515.12 159.27 515.244 159.752 515.244 160.288C515.244 160.824 515.11 161.31 514.842 161.746C514.574 162.182 514.216 162.53 513.768 162.79C513.324 163.05 512.834 163.18 512.298 163.18ZM512.298 162.148C512.642 162.148 512.956 162.066 513.24 161.902C513.524 161.734 513.748 161.51 513.912 161.23C514.08 160.946 514.164 160.632 514.164 160.288C514.164 159.944 514.08 159.63 513.912 159.346C513.748 159.062 513.524 158.838 513.24 158.674C512.96 158.506 512.648 158.422 512.304 158.422C511.96 158.422 511.646 158.506 511.362 158.674C511.082 158.838 510.858 159.062 510.69 159.346C510.522 159.63 510.438 159.944 510.438 160.288C510.438 160.628 510.52 160.94 510.684 161.224C510.852 161.504 511.076 161.728 511.356 161.896C511.64 162.064 511.954 162.148 512.298 162.148Z" fill="#C7C7C7"/>
<path d="M524.524 37.12C524.159 37.12 523.827 37.032 523.528 36.856C523.232 36.68 522.996 36.44 522.82 36.136C522.647 35.8293 522.56 35.484 522.56 35.1V33.184C522.56 32.7813 522.647 32.4253 522.82 32.116C522.996 31.804 523.236 31.5613 523.54 31.388C523.847 31.212 524.196 31.124 524.588 31.124C524.905 31.124 525.2 31.1893 525.472 31.32C525.747 31.448 525.977 31.6333 526.164 31.876L525.632 32.348C525.517 32.18 525.368 32.0467 525.184 31.948C525 31.8493 524.801 31.8 524.588 31.8C524.335 31.8 524.109 31.8613 523.912 31.984C523.717 32.104 523.564 32.264 523.452 32.464C523.34 32.6613 523.284 32.8747 523.284 33.104V34.26L523.128 34.084C523.296 33.844 523.509 33.652 523.768 33.508C524.027 33.364 524.307 33.292 524.608 33.292C524.965 33.292 525.285 33.376 525.568 33.544C525.853 33.712 526.077 33.94 526.24 34.228C526.405 34.5133 526.488 34.8347 526.488 35.192C526.488 35.5493 526.399 35.8733 526.22 36.164C526.041 36.4547 525.803 36.6867 525.504 36.86C525.208 37.0333 524.881 37.12 524.524 37.12ZM524.524 36.432C524.753 36.432 524.963 36.3773 525.152 36.268C525.341 36.156 525.491 36.0067 525.6 35.82C525.712 35.6307 525.768 35.4213 525.768 35.192C525.768 34.9627 525.712 34.7533 525.6 34.564C525.491 34.3747 525.341 34.2253 525.152 34.116C524.965 34.004 524.757 33.948 524.528 33.948C524.299 33.948 524.089 34.004 523.9 34.116C523.713 34.2253 523.564 34.3747 523.452 34.564C523.34 34.7533 523.284 34.9627 523.284 35.192C523.284 35.4187 523.339 35.6267 523.448 35.816C523.56 36.0027 523.709 36.152 523.896 36.264C524.085 36.376 524.295 36.432 524.524 36.432ZM529.473 37.12C529.099 37.12 528.766 37.036 528.473 36.868C528.182 36.6973 527.951 36.4667 527.781 36.176C527.613 35.8827 527.529 35.5493 527.529 35.176V33.064C527.529 32.6907 527.613 32.3573 527.781 32.064C527.951 31.7707 528.182 31.54 528.473 31.372C528.766 31.204 529.099 31.12 529.473 31.12C529.846 31.12 530.179 31.204 530.473 31.372C530.766 31.54 530.997 31.7707 531.165 32.064C531.333 32.3573 531.417 32.6907 531.417 33.064V35.176C531.417 35.5493 531.333 35.8827 531.165 36.176C530.997 36.4667 530.766 36.6973 530.473 36.868C530.179 37.036 529.846 37.12 529.473 37.12ZM529.473 36.436C529.699 36.436 529.905 36.3813 530.089 36.272C530.273 36.1627 530.419 36.016 530.529 35.832C530.638 35.6453 530.693 35.44 530.693 35.216V33.02C530.693 32.7933 530.638 32.588 530.529 32.404C530.419 32.22 530.273 32.0733 530.089 31.964C529.905 31.8547 529.699 31.8 529.473 31.8C529.249 31.8 529.043 31.8547 528.857 31.964C528.673 32.0733 528.526 32.22 528.417 32.404C528.307 32.588 528.253 32.7933 528.253 33.02V35.216C528.253 35.44 528.307 35.6453 528.417 35.832C528.526 36.016 528.673 36.1627 528.857 36.272C529.043 36.3813 529.249 36.436 529.473 36.436ZM534.481 37.12C534.107 37.12 533.774 37.036 533.481 36.868C533.19 36.6973 532.959 36.4667 532.789 36.176C532.621 35.8827 532.537 35.5493 532.537 35.176V33.064C532.537 32.6907 532.621 32.3573 532.789 32.064C532.959 31.7707 533.19 31.54 533.481 31.372C533.774 31.204 534.107 31.12 534.481 31.12C534.854 31.12 535.187 31.204 535.481 31.372C535.774 31.54 536.005 31.7707 536.173 32.064C536.341 32.3573 536.425 32.6907 536.425 33.064V35.176C536.425 35.5493 536.341 35.8827 536.173 36.176C536.005 36.4667 535.774 36.6973 535.481 36.868C535.187 37.036 534.854 37.12 534.481 37.12ZM534.481 36.436C534.707 36.436 534.913 36.3813 535.097 36.272C535.281 36.1627 535.427 36.016 535.537 35.832C535.646 35.6453 535.701 35.44 535.701 35.216V33.02C535.701 32.7933 535.646 32.588 535.537 32.404C535.427 32.22 535.281 32.0733 535.097 31.964C534.913 31.8547 534.707 31.8 534.481 31.8C534.257 31.8 534.051 31.8547 533.865 31.964C533.681 32.0733 533.534 32.22 533.425 32.404C533.315 32.588 533.261 32.7933 533.261 33.02V35.216C533.261 35.44 533.315 35.6453 533.425 35.832C533.534 36.016 533.681 36.1627 533.865 36.272C534.051 36.3813 534.257 36.436 534.481 36.436Z" fill="#C7C7C7"/>
<path d="M525.048 75V73.94H522.4V73.264L524.3 69.24H525.108L523.208 73.264H525.048V71.644H525.768V73.264H526.368V73.94H525.768V75H525.048ZM529.27 75.12C528.896 75.12 528.563 75.036 528.27 74.868C527.979 74.6973 527.748 74.4667 527.578 74.176C527.41 73.8827 527.326 73.5493 527.326 73.176V71.064C527.326 70.6907 527.41 70.3573 527.578 70.064C527.748 69.7707 527.979 69.54 528.27 69.372C528.563 69.204 528.896 69.12 529.27 69.12C529.643 69.12 529.976 69.204 530.27 69.372C530.563 69.54 530.794 69.7707 530.962 70.064C531.13 70.3573 531.214 70.6907 531.214 71.064V73.176C531.214 73.5493 531.13 73.8827 530.962 74.176C530.794 74.4667 530.563 74.6973 530.27 74.868C529.976 75.036 529.643 75.12 529.27 75.12ZM529.27 74.436C529.496 74.436 529.702 74.3813 529.886 74.272C530.07 74.1627 530.216 74.016 530.326 73.832C530.435 73.6453 530.49 73.44 530.49 73.216V71.02C530.49 70.7933 530.435 70.588 530.326 70.404C530.216 70.22 530.07 70.0733 529.886 69.964C529.702 69.8547 529.496 69.8 529.27 69.8C529.046 69.8 528.84 69.8547 528.654 69.964C528.47 70.0733 528.323 70.22 528.214 70.404C528.104 70.588 528.05 70.7933 528.05 71.02V73.216C528.05 73.44 528.104 73.6453 528.214 73.832C528.323 74.016 528.47 74.1627 528.654 74.272C528.84 74.3813 529.046 74.436 529.27 74.436ZM534.277 75.12C533.904 75.12 533.571 75.036 533.277 74.868C532.987 74.6973 532.756 74.4667 532.585 74.176C532.417 73.8827 532.333 73.5493 532.333 73.176V71.064C532.333 70.6907 532.417 70.3573 532.585 70.064C532.756 69.7707 532.987 69.54 533.277 69.372C533.571 69.204 533.904 69.12 534.277 69.12C534.651 69.12 534.984 69.204 535.277 69.372C535.571 69.54 535.801 69.7707 535.969 70.064C536.137 70.3573 536.221 70.6907 536.221 71.064V73.176C536.221 73.5493 536.137 73.8827 535.969 74.176C535.801 74.4667 535.571 74.6973 535.277 74.868C534.984 75.036 534.651 75.12 534.277 75.12ZM534.277 74.436C534.504 74.436 534.709 74.3813 534.893 74.272C535.077 74.1627 535.224 74.016 535.333 73.832C535.443 73.6453 535.497 73.44 535.497 73.216V71.02C535.497 70.7933 535.443 70.588 535.333 70.404C535.224 70.22 535.077 70.0733 534.893 69.964C534.709 69.8547 534.504 69.8 534.277 69.8C534.053 69.8 533.848 69.8547 533.661 69.964C533.477 70.0733 533.331 70.22 533.221 70.404C533.112 70.588 533.057 70.7933 533.057 71.02V73.216C533.057 73.44 533.112 73.6453 533.221 73.832C533.331 74.016 533.477 74.1627 533.661 74.272C533.848 74.3813 534.053 74.436 534.277 74.436Z" fill="#C7C7C7"/>
<path d="M522.4 112.996L522.404 112.356L524.96 110.056C525.173 109.864 525.316 109.683 525.388 109.512C525.463 109.339 525.5 109.161 525.5 108.98C525.5 108.759 525.449 108.559 525.348 108.38C525.247 108.201 525.108 108.06 524.932 107.956C524.759 107.852 524.561 107.8 524.34 107.8C524.111 107.8 523.907 107.855 523.728 107.964C523.549 108.071 523.408 108.213 523.304 108.392C523.203 108.571 523.153 108.765 523.156 108.976H522.428C522.428 108.613 522.512 108.293 522.68 108.016C522.848 107.736 523.076 107.517 523.364 107.36C523.655 107.2 523.984 107.12 524.352 107.12C524.709 107.12 525.029 107.203 525.312 107.368C525.595 107.531 525.817 107.753 525.98 108.036C526.145 108.316 526.228 108.633 526.228 108.988C526.228 109.239 526.196 109.456 526.132 109.64C526.071 109.824 525.975 109.995 525.844 110.152C525.713 110.307 525.549 110.472 525.352 110.648L523.228 112.556L523.136 112.316H526.228V112.996H522.4ZM529.129 113.12C528.756 113.12 528.422 113.036 528.129 112.868C527.838 112.697 527.608 112.467 527.437 112.176C527.269 111.883 527.185 111.549 527.185 111.176V109.064C527.185 108.691 527.269 108.357 527.437 108.064C527.608 107.771 527.838 107.54 528.129 107.372C528.422 107.204 528.756 107.12 529.129 107.12C529.502 107.12 529.836 107.204 530.129 107.372C530.422 107.54 530.653 107.771 530.821 108.064C530.989 108.357 531.073 108.691 531.073 109.064V111.176C531.073 111.549 530.989 111.883 530.821 112.176C530.653 112.467 530.422 112.697 530.129 112.868C529.836 113.036 529.502 113.12 529.129 113.12ZM529.129 112.436C529.356 112.436 529.561 112.381 529.745 112.272C529.929 112.163 530.076 112.016 530.185 111.832C530.294 111.645 530.349 111.44 530.349 111.216V109.02C530.349 108.793 530.294 108.588 530.185 108.404C530.076 108.22 529.929 108.073 529.745 107.964C529.561 107.855 529.356 107.8 529.129 107.8C528.905 107.8 528.7 107.855 528.513 107.964C528.329 108.073 528.182 108.22 528.073 108.404C527.964 108.588 527.909 108.793 527.909 109.02V111.216C527.909 111.44 527.964 111.645 528.073 111.832C528.182 112.016 528.329 112.163 528.513 112.272C528.7 112.381 528.905 112.436 529.129 112.436ZM534.137 113.12C533.763 113.12 533.43 113.036 533.137 112.868C532.846 112.697 532.615 112.467 532.445 112.176C532.277 111.883 532.193 111.549 532.193 111.176V109.064C532.193 108.691 532.277 108.357 532.445 108.064C532.615 107.771 532.846 107.54 533.137 107.372C533.43 107.204 533.763 107.12 534.137 107.12C534.51 107.12 534.843 107.204 535.137 107.372C535.43 107.54 535.661 107.771 535.829 108.064C535.997 108.357 536.081 108.691 536.081 109.064V111.176C536.081 111.549 535.997 111.883 535.829 112.176C535.661 112.467 535.43 112.697 535.137 112.868C534.843 113.036 534.51 113.12 534.137 113.12ZM534.137 112.436C534.363 112.436 534.569 112.381 534.753 112.272C534.937 112.163 535.083 112.016 535.193 111.832C535.302 111.645 535.357 111.44 535.357 111.216V109.02C535.357 108.793 535.302 108.588 535.193 108.404C535.083 108.22 534.937 108.073 534.753 107.964C534.569 107.855 534.363 107.8 534.137 107.8C533.913 107.8 533.707 107.855 533.521 107.964C533.337 108.073 533.19 108.22 533.081 108.404C532.971 108.588 532.917 108.793 532.917 109.02V111.216C532.917 111.44 532.971 111.645 533.081 111.832C533.19 112.016 533.337 112.163 533.521 112.272C533.707 112.381 533.913 112.436 534.137 112.436Z" fill="#C7C7C7"/>
<path d="M524.504 151.12C524.131 151.12 523.797 151.036 523.504 150.868C523.213 150.697 522.983 150.467 522.812 150.176C522.644 149.883 522.56 149.549 522.56 149.176V147.064C522.56 146.691 522.644 146.357 522.812 146.064C522.983 145.771 523.213 145.54 523.504 145.372C523.797 145.204 524.131 145.12 524.504 145.12C524.877 145.12 525.211 145.204 525.504 145.372C525.797 145.54 526.028 145.771 526.196 146.064C526.364 146.357 526.448 146.691 526.448 147.064V149.176C526.448 149.549 526.364 149.883 526.196 150.176C526.028 150.467 525.797 150.697 525.504 150.868C525.211 151.036 524.877 151.12 524.504 151.12ZM524.504 150.436C524.731 150.436 524.936 150.381 525.12 150.272C525.304 150.163 525.451 150.016 525.56 149.832C525.669 149.645 525.724 149.44 525.724 149.216V147.02C525.724 146.793 525.669 146.588 525.56 146.404C525.451 146.22 525.304 146.073 525.12 145.964C524.936 145.855 524.731 145.8 524.504 145.8C524.28 145.8 524.075 145.855 523.888 145.964C523.704 146.073 523.557 146.22 523.448 146.404C523.339 146.588 523.284 146.793 523.284 147.02V149.216C523.284 149.44 523.339 149.645 523.448 149.832C523.557 150.016 523.704 150.163 523.888 150.272C524.075 150.381 524.28 150.436 524.504 150.436Z" fill="#C7C7C7"/>
</svg>
