<svg width="50" height="54" viewBox="0 0 50 54" fill="none" xmlns="http://www.w3.org/2000/svg">
<path d="M43.75 4H6.25C4.52474 4 3.05176 4.61035 1.83105 5.83105C0.610352 7.05176 0 8.52474 0 10.25V47.75C0 49.4753 0.610352 50.9482 1.83105 52.1689C3.05176 53.3896 4.52474 54 6.25 54H25V36.8125H18.75V29H25V22.75C25 20.1458 25.9115 17.9323 27.7344 16.1094C29.5573 14.2865 31.7708 13.375 34.375 13.375H40.625V21.1875H37.5C36.6536 21.1875 35.9212 21.2363 35.3027 21.334C34.6842 21.4316 34.375 21.9036 34.375 22.75V29H42.1875L39.0625 36.8125H34.375V54H43.75C45.4753 54 46.9482 53.3896 48.1689 52.1689C49.3896 50.9482 50 49.4753 50 47.75V10.25C50 8.52474 49.3896 7.05176 48.1689 5.83105C46.9482 4.61035 45.4753 4 43.75 4Z" fill="#009FB2"/>
</svg>
