<svg width="50" height="51" viewBox="0 0 50 51" fill="none" xmlns="http://www.w3.org/2000/svg">
<path d="M26.1133 21.604C23.6621 23.9185 22.1289 27.1997 22.1289 30.8423C22.1289 33.7036 23.0762 36.3403 24.668 38.4595L19.834 43.3228C19.4043 43.1665 18.9453 43.0786 18.4668 43.0786C17.4121 43.0786 16.4258 43.4888 15.6836 44.231C14.9414 44.9731 14.5313 45.9692 14.5313 47.0239C14.5313 48.0786 14.9414 49.0649 15.6836 49.8071C16.4258 50.5493 17.4219 50.9399 18.4668 50.9399C19.5215 50.9399 20.5078 50.5591 21.2598 49.8071C22.002 49.0649 22.4121 48.0688 22.4121 47.0239C22.4121 46.6138 22.3535 46.2231 22.2266 45.8423L27.1094 40.9399C29.2578 42.5903 31.9336 43.5669 34.8535 43.5669C41.875 43.5669 47.5488 37.8735 47.5488 30.852C47.5488 24.4849 42.8906 19.2114 36.7871 18.2837V12.2681C38.4961 11.5454 39.541 9.94385 39.541 8.07861C39.541 5.52979 37.5 3.40088 34.9512 3.40088C32.4023 3.40088 30.3906 5.52979 30.3906 8.07861C30.3906 9.94385 31.4355 11.5454 33.1445 12.2681V18.2446C31.6602 18.4497 30.2539 18.8989 28.9746 19.5728C26.2793 17.5317 17.5 11.2036 12.4805 7.38525C12.5977 6.95557 12.6758 6.50635 12.6758 6.0376C12.6758 3.2251 10.3809 0.939941 7.55859 0.939941C4.74609 0.939941 2.46094 3.2251 2.46094 6.0376C2.46094 8.85986 4.74609 11.145 7.55859 11.145C8.51563 11.145 9.4043 10.8618 10.1758 10.4028L26.1133 21.604ZM34.8535 37.5806C31.1328 37.5806 28.1152 34.563 28.1152 30.8423C28.1152 27.1216 31.1328 24.104 34.8535 24.104C38.5742 24.104 41.5918 27.1216 41.5918 30.8423C41.5918 34.563 38.5742 37.5806 34.8535 37.5806Z" fill="#009FB2"/>
</svg>
