<svg width="184" height="62" viewBox="0 0 184 62" fill="none" xmlns="http://www.w3.org/2000/svg">
<rect width="184" height="61.2691" rx="12.8319" fill="white"/>
<path d="M70.5244 38.8834H73.7498V23.7051H70.5244V38.8834Z" fill="#55AE36"/>
<path d="M80.3671 39.2213C83.7401 39.2213 85.9536 37.05 85.9536 33.2132C85.9536 29.503 83.8033 27.1841 80.3671 27.1841C76.9942 27.1841 74.8018 29.3554 74.8018 33.2132C74.8018 36.9446 76.9309 39.2213 80.3671 39.2213ZM80.3671 36.6073C78.9126 36.6073 78.1115 35.4057 78.1115 33.2132C78.1115 30.9997 78.8915 29.7981 80.3671 29.7981C81.8428 29.7981 82.6439 31.0208 82.6439 33.2132C82.6439 35.4268 81.8639 36.6073 80.3671 36.6073Z" fill="#55AE36"/>
<path d="M91.2009 38.9051C92.4236 38.9051 93.4355 38.3992 94.1522 37.4084V39.3057C94.1522 40.8867 93.3722 41.4138 92.2128 41.4138C91.0955 41.4138 90.2312 40.8656 90.1047 39.8538H86.8793C87.2798 42.6154 89.3668 43.8802 92.2549 43.8802C95.2274 43.8802 97.3776 42.2992 97.3776 39.2635V27.5425H94.1522V28.5965C93.4566 27.6689 92.4658 27.1841 91.2009 27.1841C88.376 27.1841 86.542 29.2922 86.542 33.0657C86.542 36.6705 88.3339 38.9051 91.2009 38.9051ZM91.9809 36.2911C90.5895 36.2911 89.8517 35.1316 89.8517 33.0657C89.8517 30.9365 90.5895 29.7981 91.9809 29.7981C93.3933 29.7981 94.1522 30.9576 94.1522 33.0446C94.1522 35.1527 93.4144 36.2911 91.9809 36.2911Z" fill="#55AE36"/>
<path d="M104.012 39.2213C107.385 39.2213 109.598 37.05 109.598 33.2132C109.598 29.503 107.448 27.1841 104.012 27.1841C100.639 27.1841 98.4463 29.3554 98.4463 33.2132C98.4463 36.9446 100.575 39.2213 104.012 39.2213ZM104.012 36.6073C102.557 36.6073 101.756 35.4057 101.756 33.2132C101.756 30.9997 102.536 29.7981 104.012 29.7981C105.487 29.7981 106.288 31.0208 106.288 33.2132C106.288 35.4268 105.508 36.6073 104.012 36.6073Z" fill="#55AE36"/>
<path d="M110.671 26.4034H113.897V23.7051H110.671V26.4034ZM110.671 38.8834H113.897V27.5418H110.671V38.8834Z" fill="#55AE36"/>
<path d="M118.658 43.5429V37.7457C119.333 38.7154 120.302 39.2213 121.504 39.2213C124.392 39.2213 126.268 37.05 126.268 33.1922C126.268 29.4819 124.434 27.1841 121.504 27.1841C120.323 27.1841 119.354 27.7322 118.658 28.723V27.5425H115.433V43.5429H118.658ZM120.829 29.7981C122.2 29.7981 122.959 30.9997 122.959 33.1922C122.959 35.4057 122.221 36.6073 120.829 36.6073C119.417 36.6073 118.658 35.3846 118.658 33.1922C118.658 30.9997 119.396 29.7981 120.829 29.7981Z" fill="#55AE36"/>
<path d="M130.142 30.6835C130.142 30.0722 130.69 29.6506 131.533 29.6506C132.672 29.6506 133.346 30.1354 133.536 31.2949H136.74C136.424 28.4279 134.358 27.1841 131.639 27.1841C128.603 27.1841 127.064 28.9549 127.064 30.8522C127.064 35.4057 133.936 33.4451 133.936 35.6376C133.936 36.3332 133.367 36.7759 132.229 36.7759C131.027 36.7759 130.163 36.2067 130.015 35.1527H126.79C127.212 37.9565 129.278 39.2213 132.145 39.2213C135.096 39.2213 137.162 37.6824 137.162 35.4478C137.162 30.9576 130.142 32.9181 130.142 30.6835Z" fill="#55AE36"/>
<path d="M145.108 34.0565C145.108 35.5111 144.307 36.6073 143.063 36.6073C141.925 36.6073 141.377 35.8906 141.377 34.436V27.5425H138.151V35.0895C138.151 37.9143 139.732 39.2214 141.883 39.2214C143.253 39.2214 144.37 38.6311 145.108 37.3662V38.8841H148.333V27.5425H145.108V34.0565Z" fill="#55AE36"/>
<path d="M149.892 38.884H153.117V32.37C153.117 30.9154 153.855 29.7981 154.972 29.7981C156.005 29.7981 156.511 30.536 156.511 31.9695V38.884H159.715V32.37C159.715 30.9154 160.474 29.7981 161.592 29.7981C162.625 29.7981 163.109 30.536 163.109 31.9695V38.884H166.335V31.316C166.335 28.5122 164.775 27.1841 162.667 27.1841C161.254 27.1841 160.053 27.7743 159.273 29.0603C158.703 27.7954 157.565 27.1841 156.216 27.1841C154.909 27.1841 153.834 27.7533 153.117 28.976V27.5425H149.892V38.884Z" fill="#55AE36"/>
<path d="M58.2935 43.515C61.7874 40.395 63.93 36.1845 63.93 31.5515C63.93 21.9336 54.6969 14.1367 43.3073 14.1367C31.9177 14.1367 22.6846 21.9336 22.6846 31.5515C22.6846 41.1693 31.9177 48.9662 43.3073 48.9662C46.5385 48.9662 49.5961 48.3387 52.3186 47.22C55.5167 49.1941 59.4349 50.613 63.7622 50.3137C61.4761 49.7326 59.5097 47.3786 58.2935 43.515Z" fill="#B6EFA2"/>
<path d="M58.4293 31.5516C58.4293 38.6385 51.6583 44.3836 43.3059 44.3836C34.9536 44.3836 28.1826 38.6385 28.1826 31.5516C28.1826 24.4648 34.9536 18.7197 43.3059 18.7197C51.6583 18.7197 58.4293 24.4648 58.4293 31.5516Z" fill="#88E169"/>
<path d="M52.9305 31.5508C52.9305 36.1067 48.6217 39.7999 43.3066 39.7999C37.9914 39.7999 33.6826 36.1067 33.6826 31.5508C33.6826 26.995 37.9914 23.3018 43.3066 23.3018C48.6217 23.3018 52.9305 26.995 52.9305 31.5508Z" fill="#55AE36"/>
</svg>
