<svg width="184" height="62" viewBox="0 0 184 62" fill="none" xmlns="http://www.w3.org/2000/svg">
<rect width="184" height="61.2691" rx="12.8319" fill="white"/>
<path fill-rule="evenodd" clip-rule="evenodd" d="M43.0595 12.9412C41.6903 11.5726 39.471 11.5731 38.1025 12.9422L26.6809 24.3685L26.6711 24.3656L26.635 24.3695C26.6499 24.3766 26.6645 24.3837 26.6788 24.3909C24.6752 24.6007 23.8251 25.2028 23.8155 25.9761C23.8189 26.2637 23.9369 26.5743 24.1536 26.8967L24.1432 26.9072C25.9647 29.6544 34.9882 33.2784 41.3721 30.823C36.5876 33.2153 25.3199 33.6894 22.0105 29.0446C21.2917 29.8221 20.991 30.8439 21.1043 31.8258C21.9786 36.6446 31.753 37.9592 41.5275 30.9775L43.6427 33.0926C41.0107 35.7967 37.1229 51.5034 42.8997 49.1053C43.0367 49.0123 43.153 48.929 43.3112 48.8093L43.5687 48.5663C43.5539 48.5699 43.5391 48.5734 43.5244 48.5769L58.9961 33.9708C60.4326 32.6145 60.4651 30.3397 59.0678 28.943L43.0595 12.9412ZM41.3746 17.7011L41.9034 15.586L42.4322 17.7011L44.0186 18.2299L42.4322 18.7587L41.9034 20.8739L41.3746 18.7587L39.7882 18.2299L41.3746 17.7011ZM34.8295 24.606L35.182 23.1958L35.5345 24.606L36.5922 24.9585L35.5345 25.311L35.182 26.7211L34.8295 25.311L33.772 24.9585L34.8295 24.606ZM47.1075 36.5001L46.755 37.9102L45.6974 38.2628L46.755 38.6153L47.1075 40.0253L47.46 38.6153L48.5176 38.2628L47.46 37.9102L47.1075 36.5001Z" fill="#4845D2"/>
<path d="M68.9912 20.7793H65.708V35.5939H74.797V32.6911H68.9912V20.7793Z" fill="#4845D2"/>
<path d="M75.1123 30.5694C75.1123 33.7325 77.2344 35.8346 80.4375 35.8346C83.6208 35.8346 85.7428 33.7325 85.7428 30.5694C85.7428 27.4062 83.6208 25.2842 80.4375 25.2842C77.2344 25.2842 75.1123 27.4062 75.1123 30.5694ZM78.2154 30.5494C78.2154 29.0479 79.0962 28.0469 80.4375 28.0469C81.7589 28.0469 82.6398 29.0479 82.6398 30.5494C82.6398 32.0709 81.7589 33.0719 80.4375 33.0719C79.0962 33.0719 78.2154 32.0709 78.2154 30.5494Z" fill="#4845D2"/>
<path d="M86.2382 30.4088C86.2382 33.4317 88.2002 35.4737 90.9829 35.4737C92.3243 35.4737 93.4854 34.9932 94.0659 34.2125V35.5939C94.0659 36.9752 93.2051 37.8962 91.6836 37.8962C90.3222 37.8962 89.3814 37.2555 89.3213 36.1144H86.1982C86.4784 38.8571 88.6006 40.699 91.5034 40.699C94.9269 40.699 97.089 38.4767 97.089 34.9532V25.584H94.3062L94.1461 26.6049C93.5855 25.7842 92.4043 25.2437 91.043 25.2437C88.2403 25.2437 86.2382 27.3457 86.2382 30.4088ZM89.3613 30.3287C89.3613 28.8873 90.3223 27.9263 91.5435 27.9263C92.9649 27.9263 94.0059 28.8672 94.0059 30.3287C94.0059 31.7901 92.985 32.7911 91.5635 32.7911C90.3423 32.7911 89.3613 31.7901 89.3613 30.3287Z" fill="#4845D2"/>
<path d="M97.9873 30.5694C97.9873 33.7325 100.109 35.8346 103.313 35.8346C106.496 35.8346 108.618 33.7325 108.618 30.5694C108.618 27.4062 106.496 25.2842 103.313 25.2842C100.109 25.2842 97.9873 27.4062 97.9873 30.5694ZM101.09 30.5494C101.09 29.0479 101.971 28.0469 103.313 28.0469C104.634 28.0469 105.515 29.0479 105.515 30.5494C105.515 32.0709 104.634 33.0719 103.313 33.0719C101.971 33.0719 101.09 32.0709 101.09 30.5494Z" fill="#4845D2"/>
<path d="M111.277 24.023C112.237 24.023 113.018 23.2423 113.018 22.2613C113.018 21.2803 112.237 20.5195 111.277 20.5195C110.295 20.5195 109.515 21.2803 109.515 22.2613C109.515 23.2423 110.295 24.023 111.277 24.023ZM109.715 35.5945H112.818V25.5846H109.715V35.5945Z" fill="#4845D2"/>
<path d="M114.624 40.3981H117.667V34.5924C118.248 35.3532 119.569 35.8737 120.951 35.8737C123.934 35.8737 125.736 33.5915 125.655 30.4283C125.575 27.2051 123.714 25.2632 120.931 25.2632C119.509 25.2632 118.168 25.8838 117.607 26.8048L117.447 25.5835H114.624V40.3981ZM117.728 30.5884C117.728 29.087 118.728 28.086 120.17 28.086C121.631 28.086 122.552 29.107 122.552 30.5884C122.552 32.07 121.631 33.0909 120.17 33.0909C118.728 33.0909 117.728 32.0899 117.728 30.5884Z" fill="#4845D2"/>
<path d="M125.983 32.4303C126.063 34.4523 127.665 35.8536 130.188 35.8536C132.61 35.8536 134.292 34.5724 134.292 32.5104C134.292 31.0289 133.41 30.0479 131.769 29.6476L129.987 29.2071C129.346 29.0469 128.947 28.8868 128.947 28.3663C128.947 27.8458 129.366 27.5054 129.987 27.5054C130.688 27.5054 131.148 27.9659 131.128 28.6466H133.912C133.831 26.5645 132.25 25.2632 130.047 25.2632C127.825 25.2632 126.164 26.5845 126.164 28.5865C126.164 29.9279 126.905 31.0289 128.886 31.5494L130.648 32.0098C131.168 32.15 131.388 32.3902 131.388 32.7306C131.388 33.2311 130.928 33.5514 130.147 33.5514C129.246 33.5514 128.766 33.131 128.766 32.4303H125.983Z" fill="#4845D2"/>
<path d="M139.011 35.8541C140.233 35.8541 141.453 35.2936 142.074 34.4727L142.275 35.5939H145.177V25.584H142.094V30.7892C142.094 32.2906 141.653 33.1115 140.233 33.1115C139.131 33.1115 138.41 32.6109 138.41 30.7491V25.584H135.327V31.8702C135.327 34.2526 136.649 35.8541 139.011 35.8541Z" fill="#4845D2"/>
<path d="M150.065 35.5939V30.1285C150.065 28.4468 150.966 27.9663 151.847 27.9663C152.828 27.9663 153.469 28.5669 153.469 29.8081V35.5939H156.512V30.1285C156.512 28.4268 157.392 27.9463 158.273 27.9463C159.254 27.9463 159.915 28.5469 159.915 29.8081V35.5939H162.918V29.0474C162.918 26.7652 161.717 25.2437 159.134 25.2437C157.693 25.2437 156.512 25.9444 155.991 27.0254C155.391 25.9444 154.349 25.2437 152.688 25.2437C151.587 25.2437 150.566 25.7441 149.965 26.5449L149.845 25.584H146.962V35.5939H150.065Z" fill="#4845D2"/>
<path fill-rule="evenodd" clip-rule="evenodd" d="M60.1871 14.3418C56.8795 14.3418 53.7427 15.811 51.6252 18.352L44.092 27.392L48.442 20.8668L41.2213 23.9614C40.3042 24.3545 40.0742 25.5492 40.7796 26.2547L43.1033 28.5783L41.9168 30.002L44.527 32.612L45.9506 31.4256L48.2742 33.7493C48.9796 34.4546 50.1745 34.2246 50.5674 33.3077L53.662 26.087L47.137 30.437L56.177 22.9036C58.7179 20.7862 60.1871 17.6494 60.1871 14.3418ZM53.0096 21.5195C53.7303 22.2402 54.8988 22.2402 55.6196 21.5195C56.3403 20.7987 56.3403 19.6302 55.6196 18.9095C54.8988 18.1887 53.7303 18.1887 53.0096 18.9095C52.2888 19.6302 52.2888 20.7987 53.0096 21.5195Z" fill="#A3A2FF"/>
<path opacity="0.6" d="M21.9268 28.9233C23.6549 34.8442 34.1617 34.5355 41.3703 30.8242C36.5433 33.2362 25.1247 33.6969 21.9268 28.9233Z" fill="#424242"/>
<path opacity="0.6" d="M42.8994 49.1051C38.0317 51.1258 40.0262 40.2916 42.3491 35.2139C40.6559 39.7272 39.2104 49.6766 43.5684 48.5661L43.311 48.8092C43.1528 48.9289 43.0365 49.0121 42.8994 49.1051Z" fill="#424242"/>
</svg>
