<svg width="184" height="61" viewBox="0 0 184 61" fill="none" xmlns="http://www.w3.org/2000/svg">
<rect y="0.0600586" width="184" height="60.4179" rx="12.8159" fill="white"/>
<g clip-path="url(#clip0_259_547)">
<path d="M68.2733 21.3745H64.9941V36.1708H74.0718V33.2715H68.2733V21.3745Z" fill="#243A5A"/>
<path d="M74.3867 31.1517C74.3867 34.311 76.5062 36.4104 79.7053 36.4104C82.8845 36.4104 85.004 34.311 85.004 31.1517C85.004 27.9925 82.8845 25.873 79.7053 25.873C76.5062 25.873 74.3867 27.9925 74.3867 31.1517ZM77.4859 31.1317C77.4859 29.6321 78.3657 28.6324 79.7053 28.6324C81.025 28.6324 81.9048 29.6321 81.9048 31.1317C81.9048 32.6514 81.025 33.6511 79.7053 33.6511C78.3657 33.6511 77.4859 32.6514 77.4859 31.1317Z" fill="#243A5A"/>
<path d="M85.499 30.9922C85.499 34.0113 87.4585 36.0508 90.2378 36.0508C91.5775 36.0508 92.7371 35.5709 93.317 34.7912V36.1708C93.317 37.5505 92.4572 38.4702 90.9376 38.4702C89.5779 38.4702 88.6382 37.8304 88.5782 36.6907H85.459C85.7389 39.43 87.8584 41.2694 90.7576 41.2694C94.1767 41.2694 96.3362 39.0501 96.3362 35.5309V26.1734H93.5569L93.397 27.1931C92.8371 26.3733 91.6574 25.8335 90.2978 25.8335C87.4985 25.8335 85.499 27.9329 85.499 30.9922ZM88.6182 30.9122C88.6182 29.4725 89.5779 28.5128 90.7976 28.5128C92.2173 28.5128 93.257 29.4525 93.257 30.9122C93.257 32.3718 92.2372 33.3715 90.8176 33.3715C89.598 33.3715 88.6182 32.3718 88.6182 30.9122Z" fill="#243A5A"/>
<path d="M97.2324 31.1517C97.2324 34.311 99.3519 36.4104 102.551 36.4104C105.73 36.4104 107.85 34.311 107.85 31.1517C107.85 27.9925 105.73 25.873 102.551 25.873C99.3519 25.873 97.2324 27.9925 97.2324 31.1517ZM100.332 31.1317C100.332 29.6321 101.211 28.6324 102.551 28.6324C103.871 28.6324 104.751 29.6321 104.751 31.1317C104.751 32.6514 103.871 33.6511 102.551 33.6511C101.211 33.6511 100.332 32.6514 100.332 31.1317Z" fill="#243A5A"/>
<path d="M110.506 24.6139C111.465 24.6139 112.245 23.834 112.245 22.8543C112.245 21.8745 111.465 21.1147 110.506 21.1147C109.526 21.1147 108.746 21.8745 108.746 22.8543C108.746 23.834 109.526 24.6139 110.506 24.6139ZM108.946 36.1709H112.045V26.1735H108.946V36.1709Z" fill="#243A5A"/>
<path d="M113.85 40.9696H116.889V35.1711C117.468 35.9309 118.788 36.4508 120.168 36.4508C123.147 36.4508 124.946 34.1714 124.867 31.0122C124.786 27.793 122.927 25.8535 120.148 25.8535C118.728 25.8535 117.389 26.4733 116.828 27.3932L116.668 26.1735H113.85V40.9696ZM116.948 31.1721C116.948 29.6726 117.948 28.6728 119.388 28.6728C120.847 28.6728 121.767 29.6925 121.767 31.1721C121.767 32.6518 120.847 33.6715 119.388 33.6715C117.948 33.6715 116.948 32.6718 116.948 31.1721Z" fill="#243A5A"/>
<path d="M125.193 33.0117C125.273 35.0312 126.873 36.4308 129.392 36.4308C131.812 36.4308 133.492 35.1511 133.492 33.0917C133.492 31.6121 132.612 30.6323 130.972 30.2323L129.193 29.7925C128.553 29.6326 128.153 29.4725 128.153 28.9527C128.153 28.4328 128.572 28.0929 129.193 28.0929C129.892 28.0929 130.352 28.5528 130.333 29.2326H133.112C133.031 27.1531 131.452 25.8535 129.252 25.8535C127.033 25.8535 125.374 27.1732 125.374 29.1727C125.374 30.5123 126.113 31.6121 128.093 32.1319L129.852 32.5918C130.372 32.7317 130.592 32.9717 130.592 33.3116C130.592 33.8115 130.132 34.1314 129.352 34.1314C128.452 34.1314 127.973 33.7115 127.973 33.0117H125.193Z" fill="#243A5A"/>
<path d="M138.204 36.4307C139.425 36.4307 140.644 35.8708 141.264 35.051L141.464 36.1708H144.363V26.1733H141.284V31.372C141.284 32.8716 140.845 33.6913 139.425 33.6913C138.324 33.6913 137.605 33.1915 137.605 31.332V26.1733H134.525V32.4517C134.525 34.8311 135.845 36.4307 138.204 36.4307Z" fill="#243A5A"/>
<path d="M149.246 36.1708V30.7122C149.246 29.0326 150.146 28.5528 151.026 28.5528C152.005 28.5528 152.645 29.1526 152.645 30.3923V36.1708H155.684V30.7122C155.684 29.0127 156.564 28.5328 157.444 28.5328C158.423 28.5328 159.083 29.1326 159.083 30.3923V36.1708H162.083V29.6325C162.083 27.3531 160.883 25.8335 158.303 25.8335C156.864 25.8335 155.684 26.5332 155.164 27.613C154.565 26.5332 153.525 25.8335 151.865 25.8335C150.766 25.8335 149.746 26.3333 149.146 27.1331L149.026 26.1734H146.146V36.1708H149.246Z" fill="#243A5A"/>
<path d="M21.0547 30.2689C21.0547 21.6382 21.0547 17.3229 23.7359 14.6417C26.4171 11.9604 30.7324 11.9604 39.3631 11.9604C47.9938 11.9604 52.3091 11.9604 54.9904 14.6417C57.6716 17.3229 57.6716 21.6382 57.6716 30.2689C57.6716 38.8996 57.6716 43.2149 54.9904 45.8962C52.3091 48.5774 47.9938 48.5774 39.3631 48.5774C30.7324 48.5774 26.4171 48.5774 23.7359 45.8962C21.0547 43.2149 21.0547 38.8996 21.0547 30.2689Z" fill="#243A5A"/>
<path d="M43.0239 35.7612C43.5295 35.7612 43.9485 36.1751 43.8481 36.6706C43.6706 37.5458 43.2394 38.3569 42.5987 38.9977C41.7404 39.8561 40.5761 40.3383 39.3622 40.3383C38.1482 40.3383 36.9841 39.8561 36.1257 38.9977C35.4849 38.3569 35.0537 37.5458 34.8763 36.6706C34.7758 36.1751 35.1949 35.7612 35.7005 35.7612H43.0239Z" fill="#2DF8BB"/>
<path d="M44.949 28.2334C44.4606 28.3642 44.1615 28.8751 44.4091 29.3158C44.6697 29.7798 45.0302 30.1847 45.4688 30.4989C46.1574 30.9923 46.9957 31.2318 47.8411 31.1763C48.6864 31.121 49.4864 30.7742 50.1047 30.1951C50.7231 29.616 51.1214 28.8404 51.232 28.0005C51.3425 27.1606 51.1585 26.3083 50.7112 25.5889C50.2638 24.8695 49.5808 24.3275 48.7786 24.0552C47.9764 23.7828 47.1047 23.7971 46.3118 24.0956C45.8069 24.2856 45.3539 24.5834 44.9821 24.964C44.6288 25.3257 44.7855 25.8966 45.2233 26.1494L45.6877 26.4175C46.3939 26.8253 46.2547 27.8835 45.4669 28.0946L44.949 28.2334Z" fill="#2DF8BB"/>
<path d="M33.7772 28.2334C34.2656 28.3642 34.5647 28.8751 34.3171 29.3158C34.0564 29.7798 33.6959 30.1847 33.2575 30.4989C32.5689 30.9923 31.7304 31.2318 30.8851 31.1763C30.0398 31.121 29.2398 30.7742 28.6215 30.1951C28.0032 29.616 27.6048 28.8404 27.4942 28.0005C27.3836 27.1606 27.5677 26.3083 28.0151 25.5889C28.4624 24.8695 29.1454 24.3275 29.9476 24.0552C30.7498 23.7828 31.6216 23.7971 32.4144 24.0956C32.9193 24.2856 33.3723 24.5834 33.7442 24.964C34.0975 25.3257 33.9407 25.8966 33.5029 26.1494L33.0385 26.4175C32.3322 26.8253 32.4716 27.8835 33.2593 28.0946L33.7772 28.2334Z" fill="#2DF8BB"/>
</g>
<defs>
<clipPath id="clip0_259_547">
<rect width="141.891" height="36.6169" fill="white" transform="translate(21.0547 11.9604)"/>
</clipPath>
</defs>
</svg>
