<svg width="184" height="63" viewBox="0 0 184 63" fill="none" xmlns="http://www.w3.org/2000/svg">
<rect y="0.269043" width="184" height="62" rx="14" fill="white"/>
<path d="M34.3071 45.9239L31.0547 40.2905L35.8278 32.0459L38.8609 37.2998L56.7661 37.2902L51.6854 46.0017L34.3071 45.9239Z" fill="#FFAD64"/>
<path d="M59.9643 31.6962L56.7119 37.3295L47.1853 37.3183L50.2187 32.0645L41.2578 16.563L51.3425 16.6072L59.9643 31.6962Z" fill="#ADD4D3"/>
<path d="M34.8093 16.5332H41.3142L46.0677 24.7893L40.001 24.789L31.0568 40.3002L26.0527 31.5445L34.8093 16.5332Z" fill="#FB8351"/>
<path fill-rule="evenodd" clip-rule="evenodd" d="M42.1073 15.2285L42.0879 15.1948H34.0409L24.5078 31.5373L31.0518 42.9873L31.0598 42.9734L33.5337 47.2583L52.4531 47.3429L59.0972 35.9506H59.053L61.5074 31.6995L52.121 15.2724L42.1073 15.2285ZM48.3321 26.1269H48.3823L43.652 17.9114L50.5641 17.9417L58.4213 31.6926L55.962 35.9524L49.517 35.9558L51.7641 32.0639L48.3321 26.1269ZM40.4686 17.8709L43.694 23.4507L39.2282 23.4506L31.5826 36.7095L31.0611 37.6104L27.598 31.5509L35.578 17.8709H40.4686ZM37.3675 32.0345L40.7741 26.1267L45.2411 26.1269L48.6735 32.0647L46.4259 35.9575L39.6344 35.9612L37.3675 32.0345ZM32.6038 40.2956L33.8999 38.0481L35.8272 34.719L38.0897 38.6381L44.8802 38.6344L44.8692 38.6534L54.4164 38.6647L50.9199 44.66L35.0827 44.5891L32.6038 40.2956Z" fill="#333237"/>
<path d="M110.246 24.9879C111.163 24.9879 111.907 24.2433 111.907 23.3079C111.907 22.3724 111.163 21.647 110.246 21.647C109.311 21.647 108.566 22.3724 108.566 23.3079C108.566 24.2433 109.311 24.9879 110.246 24.9879ZM108.757 36.0224H111.716V26.477H108.757V36.0224Z" fill="#FB8351"/>
<path d="M113.438 40.6042H116.339V35.0678C116.893 35.7933 118.153 36.2896 119.47 36.2896C122.315 36.2896 124.033 34.1133 123.957 31.0969C123.88 28.0232 122.105 26.1714 119.451 26.1714C118.096 26.1714 116.817 26.7632 116.282 27.6414L116.129 26.4769H113.438V40.6042ZM116.397 31.2496C116.397 29.8178 117.351 28.8633 118.726 28.8633C120.119 28.8633 120.998 29.8369 120.998 31.2496C120.998 32.6623 120.119 33.636 118.726 33.636C117.351 33.636 116.397 32.6814 116.397 31.2496Z" fill="#FB8351"/>
<path d="M124.271 33.006C124.347 34.9342 125.875 36.2705 128.28 36.2705C130.59 36.2705 132.194 35.0487 132.194 33.0823C132.194 31.6696 131.354 30.7342 129.788 30.3523L128.089 29.9323C127.478 29.7796 127.096 29.6269 127.096 29.1305C127.096 28.6342 127.497 28.3096 128.089 28.3096C128.757 28.3096 129.196 28.7487 129.177 29.3978H131.831C131.755 27.4123 130.246 26.1714 128.146 26.1714C126.027 26.1714 124.443 27.4314 124.443 29.3405C124.443 30.6196 125.149 31.6696 127.039 32.166L128.719 32.6051C129.215 32.7387 129.425 32.9678 129.425 33.2923C129.425 33.7696 128.986 34.0751 128.242 34.0751C127.383 34.0751 126.925 33.6742 126.925 33.006H124.271Z" fill="#FB8351"/>
<path d="M136.695 36.2706C137.859 36.2706 139.024 35.7361 139.616 34.9535L139.807 36.0225H142.575V26.4771H139.635V31.4406C139.635 32.8724 139.215 33.6553 137.859 33.6553C136.809 33.6553 136.122 33.178 136.122 31.4025V26.4771H133.182V32.4716C133.182 34.7435 134.442 36.2706 136.695 36.2706Z" fill="#FB8351"/>
<path d="M147.236 36.0223V30.8105C147.236 29.2069 148.095 28.7487 148.935 28.7487C149.871 28.7487 150.482 29.3214 150.482 30.5051V36.0223H153.383V30.8105C153.383 29.1878 154.223 28.7296 155.063 28.7296C155.999 28.7296 156.629 29.3023 156.629 30.5051V36.0223H159.492V29.7796C159.492 27.6032 158.347 26.1523 155.884 26.1523C154.51 26.1523 153.383 26.8205 152.887 27.8514C152.314 26.8205 151.322 26.1523 149.737 26.1523C148.687 26.1523 147.713 26.6296 147.141 27.3932L147.026 26.4769H144.277V36.0223H147.236Z" fill="#FB8351"/>
<path d="M69.9239 21.8965H66.793V36.0238H75.4603V33.2556H69.9239V21.8965Z" fill="#333237"/>
<path d="M75.7598 31.232C75.7598 34.2483 77.7835 36.2529 80.838 36.2529C83.8735 36.2529 85.8971 34.2483 85.8971 31.232C85.8971 28.2156 83.8735 26.1919 80.838 26.1919C77.7835 26.1919 75.7598 28.2156 75.7598 31.232ZM78.7189 31.2129C78.7189 29.781 79.5589 28.8265 80.838 28.8265C82.098 28.8265 82.938 29.781 82.938 31.2129C82.938 32.6638 82.098 33.6183 80.838 33.6183C79.5589 33.6183 78.7189 32.6638 78.7189 31.2129Z" fill="#333237"/>
<path d="M86.3701 31.0792C86.3701 33.962 88.2411 35.9092 90.8947 35.9092C92.1738 35.9092 93.2811 35.4511 93.8347 34.7065V36.0238C93.8347 37.3411 93.0138 38.2192 91.5629 38.2192C90.2647 38.2192 89.3674 37.6083 89.3101 36.5201H86.332C86.5992 39.1356 88.6229 40.892 91.3911 40.892C94.6556 40.892 96.7174 38.7729 96.7174 35.4129V26.4783H94.0638L93.9111 27.452C93.3765 26.6692 92.2502 26.1538 90.952 26.1538C88.2792 26.1538 86.3701 28.1583 86.3701 31.0792ZM89.3483 31.0029C89.3483 29.6283 90.2647 28.712 91.4292 28.712C92.7847 28.712 93.7774 29.6092 93.7774 31.0029C93.7774 32.3965 92.8038 33.351 91.4483 33.351C90.2838 33.351 89.3483 32.3965 89.3483 31.0029Z" fill="#333237"/>
<path d="M97.5742 31.232C97.5742 34.2483 99.5978 36.2529 102.652 36.2529C105.688 36.2529 107.712 34.2483 107.712 31.232C107.712 28.2156 105.688 26.1919 102.652 26.1919C99.5978 26.1919 97.5742 28.2156 97.5742 31.232ZM100.533 31.2129C100.533 29.781 101.373 28.8265 102.652 28.8265C103.912 28.8265 104.752 29.781 104.752 31.2129C104.752 32.6638 103.912 33.6183 102.652 33.6183C101.373 33.6183 100.533 32.6638 100.533 31.2129Z" fill="#333237"/>
</svg>
