<svg width="273" height="174" viewBox="0 0 273 174" fill="none" xmlns="http://www.w3.org/2000/svg">
<path fill-rule="evenodd" clip-rule="evenodd" d="M65.9876 33.4489C63.5031 36.4012 61.2829 39.573 59.3798 42.9429C58.2697 44.8869 56.3139 49.4145 56.6443 52.6933C56.8954 55.15 58.0583 57.1482 60.3842 58.327C64.0978 60.2142 67.0714 59.983 69.3576 58.8425C71.5514 57.7509 73.2958 55.6231 74.3794 52.7488C76.3089 47.6172 76.0843 39.8597 75.1064 35.1867C77.7495 32.4921 80.6437 30.0419 83.7229 27.8561C107.405 11.0685 142.149 17.3405 168.884 42.442C178.254 51.2356 182.707 69.7228 185.047 89.6477C188.734 120.913 186.632 155.832 186.342 166.062C186.276 168.754 186.566 170.351 186.698 170.669C187.439 172.428 188.76 172.891 189.672 173.062C190.954 173.3 191.971 173.049 192.804 172.613C193.914 172.032 194.839 171.011 195.262 169.423C195.474 168.612 195.54 167.484 195.513 166.28C195.487 165.568 195.315 164.791 195.46 164.281C196.491 160.695 197.733 157.192 198.936 153.666C202.98 141.805 208.226 130.691 214.028 119.589C232.517 84.2902 250.358 46.9815 280.661 20.0881C282.3 18.6357 282.458 16.1287 281.005 14.4913C279.551 12.8552 277.04 12.7059 275.401 14.1583C244.371 41.6914 225.922 79.7718 207.011 115.912C202.61 124.309 198.539 132.718 195.037 141.431C195.355 121.76 194.879 95.1031 190.505 73.1019C187.399 57.4125 182.205 44.0596 174.316 36.6616C144.488 8.658 105.555 2.65812 79.1372 21.3871C76.5337 23.2293 74.0624 25.2408 71.7233 27.4108C57.6884 2.90134 28.3102 -6.82261 2.31524 5.04092C0.332905 5.95015 -0.55251 8.30379 0.359362 10.294C1.27123 12.2843 3.62356 13.1631 5.60589 12.2539C28.5216 1.79778 54.4769 11.0209 65.9876 33.4489ZM68.0229 43.979C67.4149 44.916 66.8335 45.8728 66.2785 46.8494C65.882 47.534 65.2872 48.726 64.8775 49.9999C64.7454 50.4426 64.6397 51.1391 64.5868 51.5647C65.0758 51.7973 65.4722 51.9189 65.829 51.7431C66.4105 51.451 66.6616 50.7228 66.9523 49.9523C67.5999 48.2356 67.9303 46.0988 68.0229 43.979Z" fill="#F3DEB3"/>
</svg>
