<svg width="477" height="453" viewBox="0 0 477 453" fill="none" xmlns="http://www.w3.org/2000/svg">
<g filter="url(#filter0_d_2_431)">
<rect x="76" y="59" width="315" height="252.277" rx="5" fill="white"/>
</g>
<path d="M100.37 278.038V271.438H98.9598V270.588H101.36V278.038H100.37ZM106.598 278.038V276.318H102.938V275.508L106.578 270.588H107.518V275.508H108.488V276.318H107.518V278.038H106.598ZM103.678 275.858L103.538 275.508H106.598V271.408L106.888 271.488L103.678 275.858ZM110.415 278.038L116.495 270.588H117.605L111.525 278.038H110.415ZM111.535 274.368C111.168 274.368 110.838 274.281 110.545 274.108C110.252 273.928 110.015 273.691 109.835 273.398C109.662 273.105 109.575 272.778 109.575 272.418C109.575 272.058 109.662 271.731 109.835 271.438C110.015 271.138 110.252 270.901 110.545 270.728C110.838 270.555 111.168 270.468 111.535 270.468C111.895 270.468 112.222 270.555 112.515 270.728C112.808 270.901 113.042 271.138 113.215 271.438C113.388 271.731 113.475 272.058 113.475 272.418C113.475 272.778 113.388 273.105 113.215 273.398C113.042 273.691 112.808 273.928 112.515 274.108C112.222 274.281 111.895 274.368 111.535 274.368ZM111.525 273.548C111.752 273.548 111.945 273.495 112.105 273.388C112.265 273.281 112.392 273.141 112.485 272.968C112.578 272.795 112.625 272.611 112.625 272.418C112.625 272.218 112.578 272.035 112.485 271.868C112.392 271.695 112.265 271.555 112.105 271.448C111.945 271.335 111.752 271.278 111.525 271.278C111.312 271.278 111.122 271.335 110.955 271.448C110.788 271.555 110.658 271.695 110.565 271.868C110.472 272.041 110.425 272.225 110.425 272.418C110.425 272.605 110.472 272.788 110.565 272.968C110.658 273.141 110.788 273.281 110.955 273.388C111.122 273.495 111.312 273.548 111.525 273.548ZM116.425 278.158C116.058 278.158 115.728 278.071 115.435 277.898C115.142 277.718 114.905 277.481 114.725 277.188C114.552 276.895 114.465 276.568 114.465 276.208C114.465 275.848 114.552 275.521 114.725 275.228C114.905 274.928 115.142 274.691 115.435 274.518C115.728 274.345 116.058 274.258 116.425 274.258C116.785 274.258 117.112 274.345 117.405 274.518C117.698 274.691 117.932 274.928 118.105 275.228C118.278 275.521 118.365 275.848 118.365 276.208C118.365 276.568 118.278 276.895 118.105 277.188C117.932 277.481 117.698 277.718 117.405 277.898C117.112 278.071 116.785 278.158 116.425 278.158ZM116.425 277.338C116.645 277.338 116.835 277.285 116.995 277.178C117.162 277.071 117.288 276.931 117.375 276.758C117.468 276.585 117.515 276.401 117.515 276.208C117.515 276.008 117.468 275.825 117.375 275.658C117.288 275.485 117.162 275.345 116.995 275.238C116.835 275.125 116.645 275.068 116.425 275.068C116.212 275.068 116.018 275.125 115.845 275.238C115.678 275.345 115.548 275.485 115.455 275.658C115.362 275.831 115.315 276.015 115.315 276.208C115.315 276.395 115.362 276.578 115.455 276.758C115.548 276.931 115.678 277.071 115.845 277.178C116.018 277.285 116.212 277.338 116.425 277.338Z" fill="#131126"/>
<path d="M351.674 278.158C351.2 278.158 350.767 278.071 350.374 277.898C349.98 277.718 349.647 277.475 349.374 277.168C349.1 276.861 348.904 276.518 348.784 276.138L349.634 275.788C349.814 276.268 350.08 276.638 350.434 276.898C350.794 277.151 351.214 277.278 351.694 277.278C351.987 277.278 352.244 277.231 352.464 277.138C352.684 277.045 352.854 276.915 352.974 276.748C353.1 276.575 353.164 276.375 353.164 276.148C353.164 275.835 353.074 275.588 352.894 275.408C352.72 275.221 352.464 275.081 352.124 274.988L350.754 274.568C350.214 274.401 349.8 274.138 349.514 273.778C349.227 273.418 349.084 273.005 349.084 272.538C349.084 272.131 349.18 271.775 349.374 271.468C349.574 271.155 349.847 270.911 350.194 270.738C350.547 270.558 350.947 270.468 351.394 270.468C351.84 270.468 352.244 270.548 352.604 270.708C352.97 270.868 353.28 271.085 353.534 271.358C353.787 271.625 353.974 271.931 354.094 272.278L353.254 272.628C353.094 272.208 352.854 271.891 352.534 271.678C352.214 271.458 351.837 271.348 351.404 271.348C351.137 271.348 350.9 271.395 350.694 271.488C350.494 271.575 350.337 271.705 350.224 271.878C350.117 272.045 350.064 272.245 350.064 272.478C350.064 272.751 350.15 272.995 350.324 273.208C350.497 273.421 350.76 273.585 351.114 273.698L352.364 274.068C352.95 274.248 353.394 274.505 353.694 274.838C353.994 275.171 354.144 275.585 354.144 276.078C354.144 276.485 354.037 276.845 353.824 277.158C353.617 277.471 353.327 277.718 352.954 277.898C352.587 278.071 352.16 278.158 351.674 278.158ZM351.224 279.038V269.588H351.974V279.038H351.224ZM357.848 278.158C357.462 278.158 357.098 278.091 356.758 277.958C356.418 277.818 356.122 277.621 355.868 277.368C355.622 277.108 355.442 276.805 355.328 276.458L356.128 276.118C356.268 276.485 356.495 276.771 356.808 276.978C357.128 277.178 357.475 277.278 357.848 277.278C358.155 277.278 358.425 277.211 358.658 277.078C358.898 276.938 359.085 276.748 359.218 276.508C359.352 276.261 359.418 275.988 359.418 275.688C359.418 275.375 359.348 275.098 359.208 274.858C359.075 274.618 358.892 274.431 358.658 274.298C358.425 274.158 358.158 274.088 357.858 274.088C357.552 274.088 357.272 274.158 357.018 274.298C356.765 274.438 356.582 274.615 356.468 274.828L355.678 274.658L356.248 270.588H360.108V271.438H356.618L356.998 271.058L356.558 274.218L356.218 274.018C356.438 273.738 356.695 273.538 356.988 273.418C357.288 273.291 357.612 273.228 357.958 273.228C358.445 273.228 358.872 273.338 359.238 273.558C359.605 273.778 359.892 274.071 360.098 274.438C360.305 274.805 360.408 275.221 360.408 275.688C360.408 276.155 360.295 276.575 360.068 276.948C359.848 277.321 359.545 277.618 359.158 277.838C358.778 278.051 358.342 278.158 357.848 278.158ZM361.941 278.038V270.588H362.841L365.631 274.558H365.171L367.941 270.588H368.841V278.038H367.851V271.828L368.201 271.938L365.431 275.838H365.351L362.611 271.938L362.921 271.828V278.038H361.941Z" fill="#131126"/>
<path d="M105.986 224.239C104.965 224.239 104.017 224.05 103.142 223.67C102.266 223.276 101.522 222.744 100.909 222.073C100.297 221.402 99.8445 220.628 99.5527 219.753L101.741 218.834C102.135 219.841 102.711 220.614 103.47 221.154C104.228 221.693 105.104 221.963 106.096 221.963C106.679 221.963 107.19 221.876 107.628 221.701C108.065 221.511 108.401 221.248 108.634 220.913C108.882 220.577 109.006 220.191 109.006 219.753C109.006 219.155 108.839 218.681 108.503 218.331C108.167 217.981 107.671 217.703 107.015 217.499L103.951 216.536C102.726 216.157 101.792 215.581 101.15 214.807C100.508 214.02 100.187 213.101 100.187 212.05C100.187 211.131 100.413 210.329 100.866 209.643C101.318 208.943 101.938 208.396 102.726 208.002C103.528 207.608 104.44 207.411 105.461 207.411C106.439 207.411 107.329 207.586 108.131 207.936C108.933 208.272 109.619 208.738 110.188 209.337C110.772 209.935 111.195 210.628 111.457 211.416L109.313 212.357C108.992 211.496 108.488 210.832 107.803 210.365C107.132 209.898 106.351 209.665 105.461 209.665C104.921 209.665 104.447 209.76 104.039 209.949C103.63 210.124 103.309 210.387 103.076 210.737C102.857 211.073 102.748 211.467 102.748 211.919C102.748 212.444 102.915 212.911 103.251 213.319C103.587 213.728 104.097 214.034 104.783 214.238L107.628 215.136C108.926 215.53 109.904 216.099 110.56 216.843C111.217 217.572 111.545 218.484 111.545 219.578C111.545 220.483 111.304 221.285 110.823 221.985C110.356 222.685 109.707 223.24 108.875 223.648C108.043 224.042 107.081 224.239 105.986 224.239ZM104.98 226.165V205.485H106.73V226.165H104.98ZM119.652 224.239C118.514 224.239 117.514 224.02 116.654 223.583C115.808 223.13 115.151 222.532 114.684 221.788C114.217 221.03 113.984 220.191 113.984 219.272C113.984 218.221 114.268 217.317 114.837 216.558C115.421 215.785 116.238 215.223 117.288 214.873L117.179 215.53C116.406 215.238 115.793 214.749 115.341 214.063C114.903 213.363 114.684 212.597 114.684 211.766C114.684 210.934 114.896 210.19 115.319 209.534C115.756 208.877 116.347 208.359 117.091 207.98C117.85 207.601 118.703 207.411 119.652 207.411C120.615 207.411 121.468 207.601 122.212 207.98C122.956 208.345 123.54 208.855 123.963 209.512C124.4 210.168 124.619 210.92 124.619 211.766C124.619 212.626 124.393 213.4 123.941 214.085C123.503 214.756 122.905 215.238 122.146 215.53L122.037 214.873C123.087 215.238 123.904 215.799 124.488 216.558C125.071 217.317 125.363 218.221 125.363 219.272C125.363 220.191 125.123 221.03 124.641 221.788C124.174 222.532 123.51 223.13 122.65 223.583C121.789 224.02 120.79 224.239 119.652 224.239ZM119.652 222.051C120.279 222.051 120.826 221.934 121.293 221.701C121.76 221.453 122.125 221.117 122.387 220.694C122.65 220.271 122.781 219.775 122.781 219.206C122.781 218.637 122.65 218.141 122.387 217.718C122.125 217.295 121.76 216.967 121.293 216.733C120.826 216.5 120.279 216.383 119.652 216.383C119.039 216.383 118.499 216.5 118.032 216.733C117.565 216.967 117.201 217.295 116.938 217.718C116.676 218.141 116.544 218.637 116.544 219.206C116.544 219.775 116.676 220.271 116.938 220.694C117.201 221.117 117.565 221.453 118.032 221.701C118.499 221.934 119.039 222.051 119.652 222.051ZM119.652 214.195C120.119 214.195 120.527 214.1 120.877 213.91C121.242 213.706 121.526 213.429 121.731 213.079C121.935 212.729 122.037 212.335 122.037 211.897C122.037 211.445 121.935 211.051 121.731 210.715C121.526 210.365 121.242 210.095 120.877 209.906C120.527 209.701 120.119 209.599 119.652 209.599C119.199 209.599 118.791 209.701 118.426 209.906C118.062 210.095 117.777 210.365 117.573 210.715C117.369 211.051 117.266 211.445 117.266 211.897C117.266 212.335 117.369 212.729 117.573 213.079C117.777 213.429 118.062 213.706 118.426 213.91C118.791 214.1 119.199 214.195 119.652 214.195ZM128.993 223.977L134.573 216.755L135.011 217.04C134.806 217.258 134.58 217.433 134.332 217.565C134.099 217.696 133.844 217.791 133.566 217.849C133.304 217.908 133.019 217.937 132.713 217.937C131.736 217.937 130.86 217.718 130.087 217.28C129.314 216.828 128.701 216.215 128.249 215.442C127.811 214.654 127.592 213.764 127.592 212.772C127.592 211.736 127.833 210.817 128.314 210.015C128.796 209.213 129.452 208.578 130.284 208.111C131.115 207.644 132.064 207.411 133.129 207.411C134.208 207.411 135.157 207.644 135.974 208.111C136.805 208.578 137.454 209.22 137.921 210.037C138.403 210.839 138.643 211.758 138.643 212.794C138.643 213.349 138.585 213.896 138.468 214.435C138.352 214.975 138.147 215.537 137.856 216.12C137.564 216.689 137.155 217.317 136.63 218.002L132.078 223.977H128.993ZM133.129 215.77C133.698 215.77 134.201 215.639 134.639 215.376C135.076 215.114 135.427 214.756 135.689 214.304C135.952 213.852 136.083 213.334 136.083 212.75C136.083 212.152 135.952 211.627 135.689 211.175C135.427 210.708 135.069 210.351 134.617 210.103C134.179 209.84 133.683 209.709 133.129 209.709C132.574 209.709 132.071 209.84 131.619 210.103C131.181 210.351 130.831 210.708 130.568 211.175C130.306 211.627 130.175 212.152 130.175 212.75C130.175 213.334 130.299 213.852 130.547 214.304C130.809 214.756 131.167 215.114 131.619 215.376C132.071 215.639 132.574 215.77 133.129 215.77ZM141.348 223.977L148.307 209.862H140.472V207.673H150.998V209.862L144.149 223.977H141.348ZM152.706 227.193V225.99C153.187 225.873 153.559 225.647 153.822 225.311C154.084 224.99 154.245 224.546 154.303 223.977H153.143V221.132H155.66V222.992C155.66 224.159 155.412 225.1 154.916 225.815C154.42 226.53 153.683 226.989 152.706 227.193ZM164.35 224.239C163.49 224.239 162.68 224.086 161.921 223.78C161.163 223.459 160.506 223.014 159.952 222.445C159.398 221.876 159.004 221.19 158.77 220.388L160.937 219.556C161.214 220.329 161.666 220.92 162.293 221.329C162.921 221.737 163.606 221.941 164.35 221.941C164.963 221.941 165.503 221.803 165.97 221.526C166.437 221.248 166.801 220.869 167.064 220.388C167.341 219.906 167.48 219.359 167.48 218.746C167.48 218.119 167.341 217.572 167.064 217.105C166.801 216.624 166.437 216.252 165.97 215.989C165.503 215.712 164.963 215.573 164.35 215.573C163.738 215.573 163.176 215.712 162.665 215.989C162.155 216.266 161.783 216.638 161.549 217.105L159.47 216.646L160.74 207.673H169.427V209.862H161.746L162.731 208.79L161.79 215.661L160.98 215.114C161.418 214.501 161.951 214.056 162.578 213.779C163.205 213.502 163.92 213.363 164.722 213.363C165.787 213.363 166.714 213.604 167.502 214.085C168.304 214.552 168.924 215.194 169.362 216.011C169.814 216.813 170.04 217.725 170.04 218.746C170.04 219.782 169.792 220.716 169.296 221.548C168.8 222.379 168.122 223.036 167.261 223.517C166.415 223.998 165.445 224.239 164.35 224.239ZM179.893 223.977V220.3H172.124V218.156L179.783 207.673H182.344V218.156H184.598V220.3H182.344V223.977H179.893ZM174.028 219.097L173.612 218.156H179.893V209.731L180.593 209.949L174.028 219.097ZM191.83 224.239C190.954 224.239 190.13 224.079 189.357 223.758C188.598 223.437 187.942 222.985 187.387 222.401C186.848 221.817 186.461 221.132 186.228 220.344L188.416 219.512C188.708 220.286 189.153 220.884 189.751 221.307C190.349 221.73 191.042 221.941 191.83 221.941C192.472 221.941 193.026 221.817 193.493 221.569C193.974 221.321 194.346 220.971 194.609 220.519C194.886 220.067 195.025 219.52 195.025 218.878C195.025 218.25 194.886 217.711 194.609 217.258C194.346 216.806 193.974 216.463 193.493 216.23C193.026 215.996 192.472 215.88 191.83 215.88C191.567 215.88 191.297 215.902 191.02 215.945C190.757 215.989 190.524 216.048 190.32 216.12L189.751 214.917L194.04 209.862H187.103V207.673H196.929V209.752L192.727 214.786L192.661 213.954C193.639 213.969 194.5 214.187 195.244 214.61C195.988 215.019 196.564 215.588 196.972 216.317C197.395 217.032 197.607 217.864 197.607 218.812C197.607 219.833 197.359 220.76 196.863 221.591C196.367 222.408 195.681 223.057 194.806 223.539C193.945 224.006 192.953 224.239 191.83 224.239Z" fill="#131126"/>
<rect x="98.5898" y="257.764" width="269.821" height="6.37064" rx="3.18532" fill="#FAE0E1"/>
<rect x="98.5898" y="257.764" width="75.2988" height="6.37064" rx="3.18532" fill="#3C3679"/>
<path d="M108.732 106.247C107.784 106.247 106.902 106.073 106.086 105.725C105.282 105.377 104.58 104.897 103.98 104.285C103.392 103.661 102.93 102.929 102.594 102.089C102.258 101.249 102.09 100.325 102.09 99.3168C102.09 98.3208 102.252 97.4028 102.576 96.5628C102.912 95.7108 103.38 94.9788 103.98 94.3668C104.58 93.7428 105.282 93.2628 106.086 92.9268C106.89 92.5788 107.772 92.4048 108.732 92.4048C109.68 92.4048 110.526 92.5668 111.27 92.8908C112.026 93.2148 112.662 93.6408 113.178 94.1688C113.694 94.6848 114.066 95.2488 114.294 95.8608L112.386 96.7608C112.098 96.0408 111.636 95.4588 111 95.0148C110.376 94.5588 109.62 94.3308 108.732 94.3308C107.844 94.3308 107.058 94.5408 106.374 94.9608C105.69 95.3808 105.156 95.9628 104.772 96.7068C104.4 97.4508 104.214 98.3208 104.214 99.3168C104.214 100.313 104.4 101.189 104.772 101.945C105.156 102.689 105.69 103.271 106.374 103.691C107.058 104.099 107.844 104.303 108.732 104.303C109.62 104.303 110.376 104.081 111 103.637C111.636 103.193 112.098 102.611 112.386 101.891L114.294 102.791C114.066 103.391 113.694 103.955 113.178 104.483C112.662 105.011 112.026 105.437 111.27 105.761C110.526 106.085 109.68 106.247 108.732 106.247ZM116.28 106.031V92.4048H118.314V106.031H116.28ZM120.692 106.031V96.2928H122.726V106.031H120.692ZM120.692 94.9608V92.6208H122.726V94.9608H120.692ZM129.676 106.247C128.704 106.247 127.84 106.025 127.084 105.581C126.34 105.125 125.758 104.513 125.338 103.745C124.918 102.965 124.708 102.095 124.708 101.135C124.708 100.151 124.918 99.2808 125.338 98.5248C125.77 97.7688 126.346 97.1748 127.066 96.7428C127.786 96.2988 128.602 96.0768 129.514 96.0768C130.246 96.0768 130.9 96.2028 131.476 96.4548C132.052 96.7068 132.538 97.0548 132.934 97.4988C133.33 97.9308 133.63 98.4288 133.834 98.9928C134.05 99.5568 134.158 100.157 134.158 100.793C134.158 100.949 134.152 101.111 134.14 101.279C134.128 101.447 134.104 101.603 134.068 101.747H126.31V100.127H132.916L131.944 100.865C132.064 100.277 132.022 99.7548 131.818 99.2988C131.626 98.8308 131.326 98.4648 130.918 98.2008C130.522 97.9248 130.054 97.7868 129.514 97.7868C128.974 97.7868 128.494 97.9248 128.074 98.2008C127.654 98.4648 127.33 98.8488 127.102 99.3528C126.874 99.8448 126.784 100.445 126.832 101.153C126.772 101.813 126.862 102.389 127.102 102.881C127.354 103.373 127.702 103.757 128.146 104.033C128.602 104.309 129.118 104.447 129.694 104.447C130.282 104.447 130.78 104.315 131.188 104.051C131.608 103.787 131.938 103.445 132.178 103.025L133.834 103.835C133.642 104.291 133.342 104.705 132.934 105.077C132.538 105.437 132.058 105.725 131.494 105.941C130.942 106.145 130.336 106.247 129.676 106.247ZM136.143 106.031V96.2928H138.087V98.2008L137.853 97.9488C138.093 97.3368 138.477 96.8748 139.005 96.5628C139.533 96.2388 140.145 96.0768 140.841 96.0768C141.561 96.0768 142.197 96.2328 142.749 96.5448C143.301 96.8568 143.733 97.2888 144.045 97.8408C144.357 98.3928 144.513 99.0288 144.513 99.7488V106.031H142.497V100.289C142.497 99.7968 142.407 99.3828 142.227 99.0468C142.047 98.6988 141.789 98.4348 141.453 98.2548C141.129 98.0628 140.757 97.9668 140.337 97.9668C139.917 97.9668 139.539 98.0628 139.203 98.2548C138.879 98.4348 138.627 98.6988 138.447 99.0468C138.267 99.3948 138.177 99.8088 138.177 100.289V106.031H136.143ZM150.902 106.139C149.882 106.139 149.09 105.851 148.526 105.275C147.962 104.699 147.68 103.889 147.68 102.845V98.1288H145.97V96.2928H146.24C146.696 96.2928 147.05 96.1608 147.302 95.8968C147.554 95.6328 147.68 95.2728 147.68 94.8168V94.0608H149.714V96.2928H151.928V98.1288H149.714V102.755C149.714 103.091 149.768 103.379 149.876 103.619C149.984 103.847 150.158 104.027 150.398 104.159C150.638 104.279 150.95 104.339 151.334 104.339C151.43 104.339 151.538 104.333 151.658 104.321C151.778 104.309 151.892 104.297 152 104.285V106.031C151.832 106.055 151.646 106.079 151.442 106.103C151.238 106.127 151.058 106.139 150.902 106.139ZM157.585 106.247C156.589 106.247 155.713 106.001 154.957 105.509C154.213 105.017 153.691 104.357 153.391 103.529L154.957 102.791C155.221 103.343 155.581 103.781 156.037 104.105C156.505 104.429 157.021 104.591 157.585 104.591C158.065 104.591 158.455 104.483 158.755 104.267C159.055 104.051 159.205 103.757 159.205 103.385C159.205 103.145 159.139 102.953 159.007 102.809C158.875 102.653 158.707 102.527 158.503 102.431C158.311 102.335 158.113 102.263 157.909 102.215L156.379 101.783C155.539 101.543 154.909 101.183 154.489 100.703C154.081 100.211 153.877 99.6408 153.877 98.9928C153.877 98.4048 154.027 97.8948 154.327 97.4628C154.627 97.0188 155.041 96.6768 155.569 96.4368C156.097 96.1968 156.691 96.0768 157.351 96.0768C158.239 96.0768 159.031 96.2988 159.727 96.7428C160.423 97.1748 160.915 97.7808 161.203 98.5608L159.637 99.2988C159.445 98.8308 159.139 98.4588 158.719 98.1828C158.311 97.9068 157.849 97.7688 157.333 97.7688C156.889 97.7688 156.535 97.8768 156.271 98.0928C156.007 98.2968 155.875 98.5668 155.875 98.9028C155.875 99.1308 155.935 99.3228 156.055 99.4788C156.175 99.6228 156.331 99.7428 156.523 99.8388C156.715 99.9228 156.913 99.9948 157.117 100.055L158.701 100.523C159.505 100.751 160.123 101.111 160.555 101.603C160.987 102.083 161.203 102.659 161.203 103.331C161.203 103.907 161.047 104.417 160.735 104.861C160.435 105.293 160.015 105.635 159.475 105.887C158.935 106.127 158.305 106.247 157.585 106.247ZM167.44 106.031V98.1288H165.64V96.2928H167.44V95.7888C167.44 95.0568 167.59 94.4448 167.89 93.9528C168.19 93.4488 168.604 93.0648 169.132 92.8008C169.672 92.5368 170.29 92.4048 170.986 92.4048C171.118 92.4048 171.268 92.4168 171.436 92.4408C171.604 92.4528 171.742 92.4708 171.85 92.4948V94.2588C171.754 94.2348 171.646 94.2228 171.526 94.2228C171.406 94.2108 171.31 94.2048 171.238 94.2048C170.698 94.2048 170.266 94.3308 169.942 94.5828C169.618 94.8228 169.456 95.2248 169.456 95.7888V96.2928H174.118V98.1288H169.456V106.031H167.44ZM173.164 106.031V96.2928H175.18V106.031H173.164ZM177.329 106.031V92.4048H179.363V106.031H177.329ZM186.313 106.247C185.341 106.247 184.477 106.025 183.721 105.581C182.977 105.125 182.395 104.513 181.975 103.745C181.555 102.965 181.345 102.095 181.345 101.135C181.345 100.151 181.555 99.2808 181.975 98.5248C182.407 97.7688 182.983 97.1748 183.703 96.7428C184.423 96.2988 185.239 96.0768 186.151 96.0768C186.883 96.0768 187.537 96.2028 188.113 96.4548C188.689 96.7068 189.175 97.0548 189.571 97.4988C189.967 97.9308 190.267 98.4288 190.471 98.9928C190.687 99.5568 190.795 100.157 190.795 100.793C190.795 100.949 190.789 101.111 190.777 101.279C190.765 101.447 190.741 101.603 190.705 101.747H182.947V100.127H189.553L188.581 100.865C188.701 100.277 188.659 99.7548 188.455 99.2988C188.263 98.8308 187.963 98.4648 187.555 98.2008C187.159 97.9248 186.691 97.7868 186.151 97.7868C185.611 97.7868 185.131 97.9248 184.711 98.2008C184.291 98.4648 183.967 98.8488 183.739 99.3528C183.511 99.8448 183.421 100.445 183.469 101.153C183.409 101.813 183.499 102.389 183.739 102.881C183.991 103.373 184.339 103.757 184.783 104.033C185.239 104.309 185.755 104.447 186.331 104.447C186.919 104.447 187.417 104.315 187.825 104.051C188.245 103.787 188.575 103.445 188.815 103.025L190.471 103.835C190.279 104.291 189.979 104.705 189.571 105.077C189.175 105.437 188.695 105.725 188.131 105.941C187.579 106.145 186.973 106.247 186.313 106.247ZM199.526 106.247C198.53 106.247 197.654 106.001 196.898 105.509C196.154 105.017 195.632 104.357 195.332 103.529L196.898 102.791C197.162 103.343 197.522 103.781 197.978 104.105C198.446 104.429 198.962 104.591 199.526 104.591C200.006 104.591 200.396 104.483 200.696 104.267C200.996 104.051 201.146 103.757 201.146 103.385C201.146 103.145 201.08 102.953 200.948 102.809C200.816 102.653 200.648 102.527 200.444 102.431C200.252 102.335 200.054 102.263 199.85 102.215L198.32 101.783C197.48 101.543 196.85 101.183 196.43 100.703C196.022 100.211 195.818 99.6408 195.818 98.9928C195.818 98.4048 195.968 97.8948 196.268 97.4628C196.568 97.0188 196.982 96.6768 197.51 96.4368C198.038 96.1968 198.632 96.0768 199.292 96.0768C200.18 96.0768 200.972 96.2988 201.668 96.7428C202.364 97.1748 202.856 97.7808 203.144 98.5608L201.578 99.2988C201.386 98.8308 201.08 98.4588 200.66 98.1828C200.252 97.9068 199.79 97.7688 199.274 97.7688C198.83 97.7688 198.476 97.8768 198.212 98.0928C197.948 98.2968 197.816 98.5668 197.816 98.9028C197.816 99.1308 197.876 99.3228 197.996 99.4788C198.116 99.6228 198.272 99.7428 198.464 99.8388C198.656 99.9228 198.854 99.9948 199.058 100.055L200.642 100.523C201.446 100.751 202.064 101.111 202.496 101.603C202.928 102.083 203.144 102.659 203.144 103.331C203.144 103.907 202.988 104.417 202.676 104.861C202.376 105.293 201.956 105.635 201.416 105.887C200.876 106.127 200.246 106.247 199.526 106.247ZM209.763 106.247C208.791 106.247 207.927 106.025 207.171 105.581C206.427 105.125 205.833 104.513 205.389 103.745C204.957 102.977 204.741 102.107 204.741 101.135C204.741 100.175 204.957 99.3108 205.389 98.5428C205.821 97.7748 206.415 97.1748 207.171 96.7428C207.927 96.2988 208.791 96.0768 209.763 96.0768C210.423 96.0768 211.041 96.1968 211.617 96.4368C212.193 96.6648 212.691 96.9828 213.111 97.3908C213.543 97.7988 213.861 98.2728 214.065 98.8128L212.283 99.6408C212.079 99.1368 211.749 98.7348 211.293 98.4348C210.849 98.1228 210.339 97.9668 209.763 97.9668C209.211 97.9668 208.713 98.1048 208.269 98.3808C207.837 98.6448 207.495 99.0228 207.243 99.5148C206.991 99.9948 206.865 100.541 206.865 101.153C206.865 101.765 206.991 102.317 207.243 102.809C207.495 103.289 207.837 103.667 208.269 103.943C208.713 104.219 209.211 104.357 209.763 104.357C210.351 104.357 210.861 104.207 211.293 103.907C211.737 103.595 212.067 103.181 212.283 102.665L214.065 103.511C213.873 104.027 213.561 104.495 213.129 104.915C212.709 105.323 212.211 105.647 211.635 105.887C211.059 106.127 210.435 106.247 209.763 106.247ZM218.881 106.247C218.221 106.247 217.639 106.133 217.135 105.905C216.643 105.665 216.259 105.341 215.983 104.933C215.707 104.513 215.569 104.021 215.569 103.457C215.569 102.929 215.683 102.455 215.911 102.035C216.151 101.615 216.517 101.261 217.009 100.973C217.501 100.685 218.119 100.481 218.863 100.361L222.247 99.8028V101.405L219.259 101.927C218.719 102.023 218.323 102.197 218.071 102.449C217.819 102.689 217.693 103.001 217.693 103.385C217.693 103.757 217.831 104.063 218.107 104.303C218.395 104.531 218.761 104.645 219.205 104.645C219.757 104.645 220.237 104.525 220.645 104.285C221.065 104.045 221.389 103.727 221.617 103.331C221.845 102.923 221.959 102.473 221.959 101.981V99.4788C221.959 98.9988 221.779 98.6088 221.419 98.3088C221.071 97.9968 220.603 97.8408 220.015 97.8408C219.475 97.8408 219.001 97.9848 218.593 98.2728C218.197 98.5488 217.903 98.9088 217.711 99.3528L216.019 98.5068C216.199 98.0268 216.493 97.6068 216.901 97.2468C217.309 96.8748 217.783 96.5868 218.323 96.3828C218.875 96.1788 219.457 96.0768 220.069 96.0768C220.837 96.0768 221.515 96.2208 222.103 96.5088C222.703 96.7968 223.165 97.1988 223.489 97.7148C223.825 98.2188 223.993 98.8068 223.993 99.4788V106.031H222.049V104.267L222.463 104.321C222.235 104.717 221.941 105.059 221.581 105.347C221.233 105.635 220.831 105.857 220.375 106.013C219.931 106.169 219.433 106.247 218.881 106.247ZM226.372 106.031V96.2928H228.316V98.2008L228.082 97.9488C228.322 97.3368 228.706 96.8748 229.234 96.5628C229.762 96.2388 230.374 96.0768 231.07 96.0768C231.79 96.0768 232.426 96.2328 232.978 96.5448C233.53 96.8568 233.962 97.2888 234.274 97.8408C234.586 98.3928 234.742 99.0288 234.742 99.7488V106.031H232.726V100.289C232.726 99.7968 232.636 99.3828 232.456 99.0468C232.276 98.6988 232.018 98.4348 231.682 98.2548C231.358 98.0628 230.986 97.9668 230.566 97.9668C230.146 97.9668 229.768 98.0628 229.432 98.2548C229.108 98.4348 228.856 98.6988 228.676 99.0468C228.496 99.3948 228.406 99.8088 228.406 100.289V106.031H226.372ZM236.918 106.031V96.2928H238.862V98.2008L238.628 97.9488C238.868 97.3368 239.252 96.8748 239.78 96.5628C240.308 96.2388 240.92 96.0768 241.616 96.0768C242.336 96.0768 242.972 96.2328 243.524 96.5448C244.076 96.8568 244.508 97.2888 244.82 97.8408C245.132 98.3928 245.288 99.0288 245.288 99.7488V106.031H243.272V100.289C243.272 99.7968 243.182 99.3828 243.002 99.0468C242.822 98.6988 242.564 98.4348 242.228 98.2548C241.904 98.0628 241.532 97.9668 241.112 97.9668C240.692 97.9668 240.314 98.0628 239.978 98.2548C239.654 98.4348 239.402 98.6988 239.222 99.0468C239.042 99.3948 238.952 99.8088 238.952 100.289V106.031H236.918ZM247.465 106.031V96.2928H249.499V106.031H247.465ZM247.465 94.9608V92.6208H249.499V94.9608H247.465ZM251.877 106.031V96.2928H253.821V98.2008L253.587 97.9488C253.827 97.3368 254.211 96.8748 254.739 96.5628C255.267 96.2388 255.879 96.0768 256.575 96.0768C257.295 96.0768 257.931 96.2328 258.483 96.5448C259.035 96.8568 259.467 97.2888 259.779 97.8408C260.091 98.3928 260.247 99.0288 260.247 99.7488V106.031H258.231V100.289C258.231 99.7968 258.141 99.3828 257.961 99.0468C257.781 98.6988 257.523 98.4348 257.187 98.2548C256.863 98.0628 256.491 97.9668 256.071 97.9668C255.651 97.9668 255.273 98.0628 254.937 98.2548C254.613 98.4348 254.361 98.6988 254.181 99.0468C254.001 99.3948 253.911 99.8088 253.911 100.289V106.031H251.877ZM267.122 109.991C266.414 109.991 265.76 109.877 265.16 109.649C264.56 109.421 264.044 109.103 263.612 108.695C263.18 108.299 262.856 107.831 262.64 107.291L264.512 106.517C264.68 106.973 264.986 107.351 265.43 107.651C265.886 107.951 266.444 108.101 267.104 108.101C267.62 108.101 268.082 107.999 268.49 107.795C268.898 107.603 269.222 107.315 269.462 106.931C269.702 106.559 269.822 106.109 269.822 105.581V103.385L270.182 103.799C269.846 104.423 269.378 104.897 268.778 105.221C268.19 105.545 267.524 105.707 266.78 105.707C265.88 105.707 265.07 105.497 264.35 105.077C263.63 104.657 263.06 104.081 262.64 103.349C262.232 102.617 262.028 101.795 262.028 100.883C262.028 99.9588 262.232 99.1368 262.64 98.4168C263.06 97.6968 263.624 97.1268 264.332 96.7068C265.04 96.2868 265.85 96.0768 266.762 96.0768C267.506 96.0768 268.166 96.2388 268.742 96.5628C269.33 96.8748 269.81 97.3308 270.182 97.9308L269.912 98.4348V96.2928H271.838V105.581C271.838 106.421 271.634 107.171 271.226 107.831C270.83 108.503 270.278 109.031 269.57 109.415C268.862 109.799 268.046 109.991 267.122 109.991ZM267.014 103.817C267.554 103.817 268.034 103.691 268.454 103.439C268.874 103.175 269.204 102.827 269.444 102.395C269.696 101.951 269.822 101.453 269.822 100.901C269.822 100.349 269.696 99.8508 269.444 99.4068C269.192 98.9628 268.856 98.6148 268.436 98.3628C268.016 98.0988 267.542 97.9668 267.014 97.9668C266.462 97.9668 265.97 98.0988 265.538 98.3628C265.106 98.6148 264.764 98.9628 264.512 99.4068C264.272 99.8388 264.152 100.337 264.152 100.901C264.152 101.441 264.272 101.933 264.512 102.377C264.764 102.821 265.106 103.175 265.538 103.439C265.97 103.691 266.462 103.817 267.014 103.817Z" fill="#201C44"/>
<path d="M104.235 146.351V136.751H101.265V135.176H108.915V136.751H105.99V146.351H104.235ZM112.933 146.531C112.153 146.531 111.438 146.346 110.788 145.976C110.148 145.606 109.638 145.101 109.258 144.461C108.878 143.821 108.688 143.096 108.688 142.286C108.688 141.466 108.878 140.741 109.258 140.111C109.638 139.471 110.148 138.971 110.788 138.611C111.428 138.241 112.143 138.056 112.933 138.056C113.733 138.056 114.448 138.241 115.078 138.611C115.718 138.971 116.223 139.471 116.593 140.111C116.973 140.741 117.163 141.466 117.163 142.286C117.163 143.106 116.973 143.836 116.593 144.476C116.213 145.116 115.703 145.621 115.063 145.991C114.423 146.351 113.713 146.531 112.933 146.531ZM112.933 144.956C113.413 144.956 113.838 144.841 114.208 144.611C114.578 144.381 114.868 144.066 115.078 143.666C115.298 143.256 115.408 142.796 115.408 142.286C115.408 141.776 115.298 141.321 115.078 140.921C114.868 140.521 114.578 140.206 114.208 139.976C113.838 139.746 113.413 139.631 112.933 139.631C112.463 139.631 112.038 139.746 111.658 139.976C111.288 140.206 110.993 140.521 110.773 140.921C110.563 141.321 110.458 141.776 110.458 142.286C110.458 142.796 110.563 143.256 110.773 143.666C110.993 144.066 111.288 144.381 111.658 144.611C112.038 144.841 112.463 144.956 112.933 144.956ZM122.182 146.441C121.332 146.441 120.672 146.201 120.202 145.721C119.732 145.241 119.497 144.566 119.497 143.696V139.766H118.072V138.236H118.297C118.677 138.236 118.972 138.126 119.182 137.906C119.392 137.686 119.497 137.386 119.497 137.006V136.376H121.192V138.236H123.037V139.766H121.192V143.621C121.192 143.901 121.237 144.141 121.327 144.341C121.417 144.531 121.562 144.681 121.762 144.791C121.962 144.891 122.222 144.941 122.542 144.941C122.622 144.941 122.712 144.936 122.812 144.926C122.912 144.916 123.007 144.906 123.097 144.896V146.351C122.957 146.371 122.802 146.391 122.632 146.411C122.462 146.431 122.312 146.441 122.182 146.441ZM127.108 146.531C126.558 146.531 126.073 146.436 125.653 146.246C125.243 146.046 124.923 145.776 124.693 145.436C124.463 145.086 124.348 144.676 124.348 144.206C124.348 143.766 124.443 143.371 124.633 143.021C124.833 142.671 125.138 142.376 125.548 142.136C125.958 141.896 126.473 141.726 127.093 141.626L129.913 141.161V142.496L127.423 142.931C126.973 143.011 126.643 143.156 126.433 143.366C126.223 143.566 126.118 143.826 126.118 144.146C126.118 144.456 126.233 144.711 126.463 144.911C126.703 145.101 127.008 145.196 127.378 145.196C127.838 145.196 128.238 145.096 128.578 144.896C128.928 144.696 129.198 144.431 129.388 144.101C129.578 143.761 129.673 143.386 129.673 142.976V140.891C129.673 140.491 129.523 140.166 129.223 139.916C128.933 139.656 128.543 139.526 128.053 139.526C127.603 139.526 127.208 139.646 126.868 139.886C126.538 140.116 126.293 140.416 126.133 140.786L124.723 140.081C124.873 139.681 125.118 139.331 125.458 139.031C125.798 138.721 126.193 138.481 126.643 138.311C127.103 138.141 127.588 138.056 128.097 138.056C128.738 138.056 129.303 138.176 129.793 138.416C130.293 138.656 130.678 138.991 130.948 139.421C131.228 139.841 131.368 140.331 131.368 140.891V146.351H129.748V144.881L130.093 144.926C129.903 145.256 129.658 145.541 129.358 145.781C129.068 146.021 128.733 146.206 128.353 146.336C127.983 146.466 127.568 146.531 127.108 146.531ZM133.349 146.351V134.996H135.044V146.351H133.349ZM145.018 146.531C144.228 146.531 143.493 146.386 142.813 146.096C142.143 145.806 141.558 145.406 141.058 144.896C140.568 144.376 140.183 143.766 139.903 143.066C139.623 142.366 139.483 141.596 139.483 140.756C139.483 139.926 139.618 139.161 139.888 138.461C140.168 137.751 140.558 137.141 141.058 136.631C141.558 136.111 142.143 135.711 142.813 135.431C143.483 135.141 144.218 134.996 145.018 134.996C145.808 134.996 146.513 135.131 147.133 135.401C147.763 135.671 148.293 136.026 148.723 136.466C149.153 136.896 149.463 137.366 149.653 137.876L148.063 138.626C147.823 138.026 147.438 137.541 146.908 137.171C146.388 136.791 145.758 136.601 145.018 136.601C144.278 136.601 143.623 136.776 143.053 137.126C142.483 137.476 142.038 137.961 141.718 138.581C141.408 139.201 141.253 139.926 141.253 140.756C141.253 141.586 141.408 142.316 141.718 142.946C142.038 143.566 142.483 144.051 143.053 144.401C143.623 144.741 144.278 144.911 145.018 144.911C145.758 144.911 146.388 144.726 146.908 144.356C147.438 143.986 147.823 143.501 148.063 142.901L149.653 143.651C149.463 144.151 149.153 144.621 148.723 145.061C148.293 145.501 147.763 145.856 147.133 146.126C146.513 146.396 145.808 146.531 145.018 146.531ZM151.308 146.351V134.996H153.003V146.351H151.308ZM154.985 146.351V138.236H156.68V146.351H154.985ZM154.985 137.126V135.176H156.68V137.126H154.985ZM162.472 146.531C161.662 146.531 160.942 146.346 160.312 145.976C159.692 145.596 159.207 145.086 158.857 144.446C158.507 143.796 158.332 143.071 158.332 142.271C158.332 141.451 158.507 140.726 158.857 140.096C159.217 139.466 159.697 138.971 160.297 138.611C160.897 138.241 161.577 138.056 162.337 138.056C162.947 138.056 163.492 138.161 163.972 138.371C164.452 138.581 164.857 138.871 165.187 139.241C165.517 139.601 165.767 140.016 165.937 140.486C166.117 140.956 166.207 141.456 166.207 141.986C166.207 142.116 166.202 142.251 166.192 142.391C166.182 142.531 166.162 142.661 166.132 142.781H159.667V141.431H165.172L164.362 142.046C164.462 141.556 164.427 141.121 164.257 140.741C164.097 140.351 163.847 140.046 163.507 139.826C163.177 139.596 162.787 139.481 162.337 139.481C161.887 139.481 161.487 139.596 161.137 139.826C160.787 140.046 160.517 140.366 160.327 140.786C160.137 141.196 160.062 141.696 160.102 142.286C160.052 142.836 160.127 143.316 160.327 143.726C160.537 144.136 160.827 144.456 161.197 144.686C161.577 144.916 162.007 145.031 162.487 145.031C162.977 145.031 163.392 144.921 163.732 144.701C164.082 144.481 164.357 144.196 164.557 143.846L165.937 144.521C165.777 144.901 165.527 145.246 165.187 145.556C164.857 145.856 164.457 146.096 163.987 146.276C163.527 146.446 163.022 146.531 162.472 146.531ZM167.861 146.351V138.236H169.481V139.826L169.286 139.616C169.486 139.106 169.806 138.721 170.246 138.461C170.686 138.191 171.196 138.056 171.776 138.056C172.376 138.056 172.906 138.186 173.366 138.446C173.826 138.706 174.186 139.066 174.446 139.526C174.706 139.986 174.836 140.516 174.836 141.116V146.351H173.156V141.566C173.156 141.156 173.081 140.811 172.931 140.531C172.781 140.241 172.566 140.021 172.286 139.871C172.016 139.711 171.706 139.631 171.356 139.631C171.006 139.631 170.691 139.711 170.411 139.871C170.141 140.021 169.931 140.241 169.781 140.531C169.631 140.821 169.556 141.166 169.556 141.566V146.351H167.861ZM180.16 146.441C179.31 146.441 178.65 146.201 178.18 145.721C177.71 145.241 177.475 144.566 177.475 143.696V139.766H176.05V138.236H176.275C176.655 138.236 176.95 138.126 177.16 137.906C177.37 137.686 177.475 137.386 177.475 137.006V136.376H179.17V138.236H181.015V139.766H179.17V143.621C179.17 143.901 179.215 144.141 179.305 144.341C179.395 144.531 179.54 144.681 179.74 144.791C179.94 144.891 180.2 144.941 180.52 144.941C180.6 144.941 180.69 144.936 180.79 144.926C180.89 144.916 180.985 144.906 181.075 144.896V146.351C180.935 146.371 180.78 146.391 180.61 146.411C180.44 146.431 180.29 146.441 180.16 146.441ZM185.729 146.531C184.899 146.531 184.169 146.326 183.539 145.916C182.919 145.506 182.484 144.956 182.234 144.266L183.539 143.651C183.759 144.111 184.059 144.476 184.439 144.746C184.829 145.016 185.259 145.151 185.729 145.151C186.129 145.151 186.454 145.061 186.704 144.881C186.954 144.701 187.079 144.456 187.079 144.146C187.079 143.946 187.024 143.786 186.914 143.666C186.804 143.536 186.664 143.431 186.494 143.351C186.334 143.271 186.169 143.211 185.999 143.171L184.724 142.811C184.024 142.611 183.499 142.311 183.149 141.911C182.809 141.501 182.639 141.026 182.639 140.486C182.639 139.996 182.764 139.571 183.014 139.211C183.264 138.841 183.609 138.556 184.049 138.356C184.489 138.156 184.984 138.056 185.534 138.056C186.274 138.056 186.934 138.241 187.514 138.611C188.094 138.971 188.504 139.476 188.744 140.126L187.439 140.741C187.279 140.351 187.024 140.041 186.674 139.811C186.334 139.581 185.949 139.466 185.519 139.466C185.149 139.466 184.854 139.556 184.634 139.736C184.414 139.906 184.304 140.131 184.304 140.411C184.304 140.601 184.354 140.761 184.454 140.891C184.554 141.011 184.684 141.111 184.844 141.191C185.004 141.261 185.169 141.321 185.339 141.371L186.659 141.761C187.329 141.951 187.844 142.251 188.204 142.661C188.564 143.061 188.744 143.541 188.744 144.101C188.744 144.581 188.614 145.006 188.354 145.376C188.104 145.736 187.754 146.021 187.304 146.231C186.854 146.431 186.329 146.531 185.729 146.531Z" fill="#131126"/>
<defs>
<filter id="filter0_d_2_431" x="0.27" y="0" width="515" height="452.277" filterUnits="userSpaceOnUse" color-interpolation-filters="sRGB">
<feFlood flood-opacity="0" result="BackgroundImageFix"/>
<feColorMatrix in="SourceAlpha" type="matrix" values="0 0 0 0 0 0 0 0 0 0 0 0 0 0 0 0 0 0 127 0" result="hardAlpha"/>
<feOffset dx="24.27" dy="41"/>
<feGaussianBlur stdDeviation="50"/>
<feComposite in2="hardAlpha" operator="out"/>
<feColorMatrix type="matrix" values="0 0 0 0 0 0 0 0 0 0 0 0 0 0 0 0 0 0 0.06 0"/>
<feBlend mode="normal" in2="BackgroundImageFix" result="effect1_dropShadow_2_431"/>
<feBlend mode="normal" in="SourceGraphic" in2="effect1_dropShadow_2_431" result="shape"/>
</filter>
</defs>
</svg>
